  0
SECTION
  2
HEADER
  9
$ACADVER
  1
AC1009
  9
$EXTMIN
 10
0.0
 20
0.0
 30
0.0
  9
$EXTMAX
 10
1000.0
 20
1000.0
 30
0.0
  9
$FILLMODE
 70
 0
  9
$SPLFRAME
 70
 1
  0
ENDSEC
  0
SECTION
  2
TABLES
  0
TABLE
  2
LAYER
 70
1
  0
LAYER
  2
0
 70
     0
 62
     7
  6
CONTINUOUS
  0
ENDTAB
  0
ENDSEC
  0
SECTION
  2
ENTITIES
  0
POLYLINE
  8
0
 62
     5
 66
     1
 10
0
 20
0
 30
0.0
 70
     1
 40
0.107136
 41
0.107136
  0
VERTEX
  8
0
 10
0.85829
 20
4.43039
 30
0.0
 40
0.001488
 41
0.001488
  0
VERTEX
  8
0
 10
0.85829
 20
4.18826
 30
0.0
 40
0.001488
 41
0.001488
  0
VERTEX
  8
0
 10
0.438965
 20
4.18826
 30
0.0
 40
0.001488
 41
0.001488
  0
VERTEX
  8
0
 10
0.438965
 20
0.444065
 30
0.0
 40
0.001488
 41
0.001488
  0
VERTEX
  8
0
 10
4.93311
 20
0.444065
 30
0.0
 40
0.001488
 41
0.001488
  0
VERTEX
  8
0
 10
4.93311
 20
4.18826
 30
0.0
 40
0.001488
 41
0.001488
  0
VERTEX
  8
0
 10
4.51378
 20
4.18826
 30
0.0
 40
0.001488
 41
0.001488
  0
VERTEX
  8
0
 10
4.51378
 20
4.43033
 30
0.0
 40
0.001488
 41
0.001488
  0
VERTEX
  8
0
 10
5.05707
 20
4.43033
 30
0.0
 40
0.001488
 41
0.001488
  0
VERTEX
  8
0
 10
5.0664
 20
4.42996
 30
0.0
 40
0.001488
 41
0.001488
  0
VERTEX
  8
0
 10
5.07557
 20
4.42893
 30
0.0
 40
0.001488
 41
0.001488
  0
VERTEX
  8
0
 10
5.08475
 20
4.42708
 30
0.0
 40
0.001488
 41
0.001488
  0
VERTEX
  8
0
 10
5.09364
 20
4.42458
 30
0.0
 40
0.001488
 41
0.001488
  0
VERTEX
  8
0
 10
5.10232
 20
4.42139
 30
0.0
 40
0.001488
 41
0.001488
  0
VERTEX
  8
0
 10
5.11074
 20
4.41749
 30
0.0
 40
0.001488
 41
0.001488
  0
VERTEX
  8
0
 10
5.11887
 20
4.41292
 30
0.0
 40
0.001488
 41
0.001488
  0
VERTEX
  8
0
 10
5.12657
 20
4.40782
 30
0.0
 40
0.001488
 41
0.001488
  0
VERTEX
  8
0
 10
5.13385
 20
4.40207
 30
0.0
 40
0.001488
 41
0.001488
  0
VERTEX
  8
0
 10
5.14068
 20
4.39578
 30
0.0
 40
0.001488
 41
0.001488
  0
VERTEX
  8
0
 10
5.14697
 20
4.38894
 30
0.0
 40
0.001488
 41
0.001488
  0
VERTEX
  8
0
 10
5.15267
 20
4.38167
 30
0.0
 40
0.001488
 41
0.001488
  0
VERTEX
  8
0
 10
5.15782
 20
4.37397
 30
0.0
 40
0.001488
 41
0.001488
  0
VERTEX
  8
0
 10
5.16238
 20
4.36583
 30
0.0
 40
0.001488
 41
0.001488
  0
VERTEX
  8
0
 10
5.16624
 20
4.35747
 30
0.0
 40
0.001488
 41
0.001488
  0
VERTEX
  8
0
 10
5.16949
 20
4.34874
 30
0.0
 40
0.001488
 41
0.001488
  0
VERTEX
  8
0
 10
5.17199
 20
4.33985
 30
0.0
 40
0.001488
 41
0.001488
  0
VERTEX
  8
0
 10
5.17383
 20
4.33074
 30
0.0
 40
0.001488
 41
0.001488
  0
VERTEX
  8
0
 10
5.17486
 20
4.3215
 30
0.0
 40
0.001488
 41
0.001488
  0
VERTEX
  8
0
 10
5.17529
 20
4.31222
 30
0.0
 40
0.001488
 41
0.001488
  0
VERTEX
  8
0
 10
5.17524
 20
0.320042
 30
0.0
 40
0.001488
 41
0.001488
  0
VERTEX
  8
0
 10
5.17486
 20
0.310818
 30
0.0
 40
0.001488
 41
0.001488
  0
VERTEX
  8
0
 10
5.17383
 20
0.301594
 30
0.0
 40
0.001488
 41
0.001488
  0
VERTEX
  8
0
 10
5.17199
 20
0.292481
 30
0.0
 40
0.001488
 41
0.001488
  0
VERTEX
  8
0
 10
5.16949
 20
0.283583
 30
0.0
 40
0.001488
 41
0.001488
  0
VERTEX
  8
0
 10
5.16624
 20
0.274849
 30
0.0
 40
0.001488
 41
0.001488
  0
VERTEX
  8
0
 10
5.16238
 20
0.266493
 30
0.0
 40
0.001488
 41
0.001488
  0
VERTEX
  8
0
 10
5.15782
 20
0.258356
 30
0.0
 40
0.001488
 41
0.001488
  0
VERTEX
  8
0
 10
5.15267
 20
0.250651
 30
0.0
 40
0.001488
 41
0.001488
  0
VERTEX
  8
0
 10
5.14697
 20
0.243381
 30
0.0
 40
0.001488
 41
0.001488
  0
VERTEX
  8
0
 10
5.14068
 20
0.236546
 30
0.0
 40
0.001488
 41
0.001488
  0
VERTEX
  8
0
 10
5.13385
 20
0.230251
 30
0.0
 40
0.001488
 41
0.001488
  0
VERTEX
  8
0
 10
5.12657
 20
0.224501
 30
0.0
 40
0.001488
 41
0.001488
  0
VERTEX
  8
0
 10
5.11887
 20
0.219401
 30
0.0
 40
0.001488
 41
0.001488
  0
VERTEX
  8
0
 10
5.11074
 20
0.214844
 30
0.0
 40
0.001488
 41
0.001488
  0
VERTEX
  8
0
 10
5.10232
 20
0.210992
 30
0.0
 40
0.001488
 41
0.001488
  0
VERTEX
  8
0
 10
5.09364
 20
0.207736
 30
0.0
 40
0.001488
 41
0.001488
  0
VERTEX
  8
0
 10
5.08475
 20
0.20524
 30
0.0
 40
0.001488
 41
0.001488
  0
VERTEX
  8
0
 10
5.07557
 20
0.203396
 30
0.0
 40
0.001488
 41
0.001488
  0
VERTEX
  8
0
 10
5.0664
 20
0.202365
 30
0.0
 40
0.001488
 41
0.001488
  0
VERTEX
  8
0
 10
5.05707
 20
0.201932
 30
0.0
 40
0.001488
 41
0.001488
  0
VERTEX
  8
0
 10
0.314996
 20
0.201932
 30
0.0
 40
0.001488
 41
0.001488
  0
VERTEX
  8
0
 10
0.305718
 20
0.202365
 30
0.0
 40
0.001488
 41
0.001488
  0
VERTEX
  8
0
 10
0.296496
 20
0.203396
 30
0.0
 40
0.001488
 41
0.001488
  0
VERTEX
  8
0
 10
0.287381
 20
0.20524
 30
0.0
 40
0.001488
 41
0.001488
  0
VERTEX
  8
0
 10
0.278483
 20
0.207736
 30
0.0
 40
0.001488
 41
0.001488
  0
VERTEX
  8
0
 10
0.269749
 20
0.210992
 30
0.0
 40
0.001488
 41
0.001488
  0
VERTEX
  8
0
 10
0.261393
 20
0.214844
 30
0.0
 40
0.001488
 41
0.001488
  0
VERTEX
  8
0
 10
0.253256
 20
0.219401
 30
0.0
 40
0.001488
 41
0.001488
  0
VERTEX
  8
0
 10
0.245551
 20
0.224501
 30
0.0
 40
0.001488
 41
0.001488
  0
VERTEX
  8
0
 10
0.238282
 20
0.230251
 30
0.0
 40
0.001488
 41
0.001488
  0
VERTEX
  8
0
 10
0.231446
 20
0.236546
 30
0.0
 40
0.001488
 41
0.001488
  0
VERTEX
  8
0
 10
0.225151
 20
0.243381
 30
0.0
 40
0.001488
 41
0.001488
  0
VERTEX
  8
0
 10
0.219401
 20
0.250651
 30
0.0
 40
0.001488
 41
0.001488
  0
VERTEX
  8
0
 10
0.214301
 20
0.258356
 30
0.0
 40
0.001488
 41
0.001488
  0
VERTEX
  8
0
 10
0.209744
 20
0.266493
 30
0.0
 40
0.001488
 41
0.001488
  0
VERTEX
  8
0
 10
0.205892
 20
0.274849
 30
0.0
 40
0.001488
 41
0.001488
  0
VERTEX
  8
0
 10
0.202636
 20
0.283583
 30
0.0
 40
0.001488
 41
0.001488
  0
VERTEX
  8
0
 10
0.200142
 20
0.292481
 30
0.0
 40
0.001488
 41
0.001488
  0
VERTEX
  8
0
 10
0.198296
 20
0.301594
 30
0.0
 40
0.001488
 41
0.001488
  0
VERTEX
  8
0
 10
0.197265
 20
0.310818
 30
0.0
 40
0.001488
 41
0.001488
  0
VERTEX
  8
0
 10
0.196832
 20
0.320096
 30
0.0
 40
0.001488
 41
0.001488
  0
VERTEX
  8
0
 10
0.196886
 20
4.31222
 30
0.0
 40
0.001488
 41
0.001488
  0
VERTEX
  8
0
 10
0.197265
 20
4.3215
 30
0.0
 40
0.001488
 41
0.001488
  0
VERTEX
  8
0
 10
0.198296
 20
4.33074
 30
0.0
 40
0.001488
 41
0.001488
  0
VERTEX
  8
0
 10
0.200142
 20
4.33985
 30
0.0
 40
0.001488
 41
0.001488
  0
VERTEX
  8
0
 10
0.202636
 20
4.34874
 30
0.0
 40
0.001488
 41
0.001488
  0
VERTEX
  8
0
 10
0.205892
 20
4.35747
 30
0.0
 40
0.001488
 41
0.001488
  0
VERTEX
  8
0
 10
0.209744
 20
4.36583
 30
0.0
 40
0.001488
 41
0.001488
  0
VERTEX
  8
0
 10
0.214301
 20
4.37397
 30
0.0
 40
0.001488
 41
0.001488
  0
VERTEX
  8
0
 10
0.219401
 20
4.38167
 30
0.0
 40
0.001488
 41
0.001488
  0
VERTEX
  8
0
 10
0.225151
 20
4.38894
 30
0.0
 40
0.001488
 41
0.001488
  0
VERTEX
  8
0
 10
0.231446
 20
4.39578
 30
0.0
 40
0.001488
 41
0.001488
  0
VERTEX
  8
0
 10
0.238282
 20
4.40207
 30
0.0
 40
0.001488
 41
0.001488
  0
VERTEX
  8
0
 10
0.245551
 20
4.40782
 30
0.0
 40
0.001488
 41
0.001488
  0
VERTEX
  8
0
 10
0.253256
 20
4.41292
 30
0.0
 40
0.001488
 41
0.001488
  0
VERTEX
  8
0
 10
0.261393
 20
4.41749
 30
0.0
 40
0.001488
 41
0.001488
  0
VERTEX
  8
0
 10
0.269749
 20
4.42139
 30
0.0
 40
0.001488
 41
0.001488
  0
VERTEX
  8
0
 10
0.278483
 20
4.42458
 30
0.0
 40
0.001488
 41
0.001488
  0
VERTEX
  8
0
 10
0.287381
 20
4.42708
 30
0.0
 40
0.001488
 41
0.001488
  0
VERTEX
  8
0
 10
0.296496
 20
4.42893
 30
0.0
 40
0.001488
 41
0.001488
  0
VERTEX
  8
0
 10
0.305718
 20
4.42996
 30
0.0
 40
0.001488
 41
0.001488
  0
VERTEX
  8
0
 10
0.314996
 20
4.43039
 30
0.0
 40
0.001488
 41
0.001488
  0
VERTEX
  8
0
 10
0.85829
 20
4.43039
 30
0.0
 40
0.001488
 41
0.001488
  0
SEQEND
 8
0
  0
POLYLINE
  8
0
 62
     5
 66
     1
 10
0
 20
0
 30
0.0
 70
     1
 40
0.107136
 41
0.107136
  0
VERTEX
  8
0
 10
2.68067
 20
0.388781
 30
0.0
 40
0.001488
 41
0.001488
  0
VERTEX
  8
0
 10
2.67529
 20
0.388129
 30
0.0
 40
0.001488
 41
0.001488
  0
VERTEX
  8
0
 10
2.66997
 20
0.387044
 30
0.0
 40
0.001488
 41
0.001488
  0
VERTEX
  8
0
 10
2.66476
 20
0.385633
 30
0.0
 40
0.001488
 41
0.001488
  0
VERTEX
  8
0
 10
2.65967
 20
0.383735
 30
0.0
 40
0.001488
 41
0.001488
  0
VERTEX
  8
0
 10
2.65479
 20
0.381456
 30
0.0
 40
0.001488
 41
0.001488
  0
VERTEX
  8
0
 10
2.65007
 20
0.378851
 30
0.0
 40
0.001488
 41
0.001488
  0
VERTEX
  8
0
 10
2.64556
 20
0.375814
 30
0.0
 40
0.001488
 41
0.001488
  0
VERTEX
  8
0
 10
2.64128
 20
0.37245
 30
0.0
 40
0.001488
 41
0.001488
  0
VERTEX
  8
0
 10
2.63738
 20
0.368815
 30
0.0
 40
0.001488
 41
0.001488
  0
VERTEX
  8
0
 10
2.63368
 20
0.3648
 30
0.0
 40
0.001488
 41
0.001488
  0
VERTEX
  8
0
 10
2.63032
 20
0.360568
 30
0.0
 40
0.001488
 41
0.001488
  0
VERTEX
  8
0
 10
2.62733
 20
0.356065
 30
0.0
 40
0.001488
 41
0.001488
  0
VERTEX
  8
0
 10
2.62468
 20
0.351346
 30
0.0
 40
0.001488
 41
0.001488
  0
VERTEX
  8
0
 10
2.6224
 20
0.346462
 30
0.0
 40
0.001488
 41
0.001488
  0
VERTEX
  8
0
 10
2.62056
 20
0.341363
 30
0.0
 40
0.001488
 41
0.001488
  0
VERTEX
  8
0
 10
2.61903
 20
0.336154
 30
0.0
 40
0.001488
 41
0.001488
  0
VERTEX
  8
0
 10
2.61806
 20
0.330837
 30
0.0
 40
0.001488
 41
0.001488
  0
VERTEX
  8
0
 10
2.61735
 20
0.325521
 30
0.0
 40
0.001488
 41
0.001488
  0
VERTEX
  8
0
 10
2.61719
 20
0.320042
 30
0.0
 40
0.001488
 41
0.001488
  0
VERTEX
  8
0
 10
2.61735
 20
0.314671
 30
0.0
 40
0.001488
 41
0.001488
  0
VERTEX
  8
0
 10
2.61806
 20
0.309299
 30
0.0
 40
0.001488
 41
0.001488
  0
VERTEX
  8
0
 10
2.61903
 20
0.303982
 30
0.0
 40
0.001488
 41
0.001488
  0
VERTEX
  8
0
 10
2.62056
 20
0.298828
 30
0.0
 40
0.001488
 41
0.001488
  0
VERTEX
  8
0
 10
2.6224
 20
0.293728
 30
0.0
 40
0.001488
 41
0.001488
  0
VERTEX
  8
0
 10
2.62468
 20
0.288792
 30
0.0
 40
0.001488
 41
0.001488
  0
VERTEX
  8
0
 10
2.62733
 20
0.284071
 30
0.0
 40
0.001488
 41
0.001488
  0
VERTEX
  8
0
 10
2.63032
 20
0.279568
 30
0.0
 40
0.001488
 41
0.001488
  0
VERTEX
  8
0
 10
2.63368
 20
0.275336
 30
0.0
 40
0.001488
 41
0.001488
  0
VERTEX
  8
0
 10
2.63738
 20
0.271376
 30
0.0
 40
0.001488
 41
0.001488
  0
VERTEX
  8
0
 10
2.64128
 20
0.267686
 30
0.0
 40
0.001488
 41
0.001488
  0
VERTEX
  8
0
 10
2.64556
 20
0.264378
 30
0.0
 40
0.001488
 41
0.001488
  0
VERTEX
  8
0
 10
2.65007
 20
0.261339
 30
0.0
 40
0.001488
 41
0.001488
  0
VERTEX
  8
0
 10
2.65479
 20
0.258681
 30
0.0
 40
0.001488
 41
0.001488
  0
VERTEX
  8
0
 10
2.65967
 20
0.256456
 30
0.0
 40
0.001488
 41
0.001488
  0
VERTEX
  8
0
 10
2.66476
 20
0.254557
 30
0.0
 40
0.001488
 41
0.001488
  0
VERTEX
  8
0
 10
2.66997
 20
0.253093
 30
0.0
 40
0.001488
 41
0.001488
  0
VERTEX
  8
0
 10
2.67529
 20
0.252007
 30
0.0
 40
0.001488
 41
0.001488
  0
VERTEX
  8
0
 10
2.68067
 20
0.251411
 30
0.0
 40
0.001488
 41
0.001488
  0
VERTEX
  8
0
 10
2.68608
 20
0.251139
 30
0.0
 40
0.001488
 41
0.001488
  0
VERTEX
  8
0
 10
2.69146
 20
0.251411
 30
0.0
 40
0.001488
 41
0.001488
  0
VERTEX
  8
0
 10
2.69683
 20
0.252007
 30
0.0
 40
0.001488
 41
0.001488
  0
VERTEX
  8
0
 10
2.70215
 20
0.253093
 30
0.0
 40
0.001488
 41
0.001488
  0
VERTEX
  8
0
 10
2.70736
 20
0.254557
 30
0.0
 40
0.001488
 41
0.001488
  0
VERTEX
  8
0
 10
2.71246
 20
0.256456
 30
0.0
 40
0.001488
 41
0.001488
  0
VERTEX
  8
0
 10
2.71733
 20
0.258681
 30
0.0
 40
0.001488
 41
0.001488
  0
VERTEX
  8
0
 10
2.72206
 20
0.261339
 30
0.0
 40
0.001488
 41
0.001488
  0
VERTEX
  8
0
 10
2.72657
 20
0.264378
 30
0.0
 40
0.001488
 41
0.001488
  0
VERTEX
  8
0
 10
2.73085
 20
0.267686
 30
0.0
 40
0.001488
 41
0.001488
  0
VERTEX
  8
0
 10
2.73475
 20
0.271376
 30
0.0
 40
0.001488
 41
0.001488
  0
VERTEX
  8
0
 10
2.73844
 20
0.275336
 30
0.0
 40
0.001488
 41
0.001488
  0
VERTEX
  8
0
 10
2.74181
 20
0.279568
 30
0.0
 40
0.001488
 41
0.001488
  0
VERTEX
  8
0
 10
2.74479
 20
0.284071
 30
0.0
 40
0.001488
 41
0.001488
  0
VERTEX
  8
0
 10
2.74744
 20
0.288792
 30
0.0
 40
0.001488
 41
0.001488
  0
VERTEX
  8
0
 10
2.74972
 20
0.293728
 30
0.0
 40
0.001488
 41
0.001488
  0
VERTEX
  8
0
 10
2.75157
 20
0.298828
 30
0.0
 40
0.001488
 41
0.001488
  0
VERTEX
  8
0
 10
2.7531
 20
0.303982
 30
0.0
 40
0.001488
 41
0.001488
  0
VERTEX
  8
0
 10
2.75407
 20
0.309299
 30
0.0
 40
0.001488
 41
0.001488
  0
VERTEX
  8
0
 10
2.75478
 20
0.314671
 30
0.0
 40
0.001488
 41
0.001488
  0
VERTEX
  8
0
 10
2.75493
 20
0.320042
 30
0.0
 40
0.001488
 41
0.001488
  0
VERTEX
  8
0
 10
2.75478
 20
0.325521
 30
0.0
 40
0.001488
 41
0.001488
  0
VERTEX
  8
0
 10
2.75407
 20
0.330837
 30
0.0
 40
0.001488
 41
0.001488
  0
VERTEX
  8
0
 10
2.7531
 20
0.336154
 30
0.0
 40
0.001488
 41
0.001488
  0
VERTEX
  8
0
 10
2.75157
 20
0.341363
 30
0.0
 40
0.001488
 41
0.001488
  0
VERTEX
  8
0
 10
2.74972
 20
0.346462
 30
0.0
 40
0.001488
 41
0.001488
  0
VERTEX
  8
0
 10
2.74744
 20
0.351346
 30
0.0
 40
0.001488
 41
0.001488
  0
VERTEX
  8
0
 10
2.74479
 20
0.356065
 30
0.0
 40
0.001488
 41
0.001488
  0
VERTEX
  8
0
 10
2.74181
 20
0.360568
 30
0.0
 40
0.001488
 41
0.001488
  0
VERTEX
  8
0
 10
2.73844
 20
0.3648
 30
0.0
 40
0.001488
 41
0.001488
  0
VERTEX
  8
0
 10
2.73475
 20
0.368815
 30
0.0
 40
0.001488
 41
0.001488
  0
VERTEX
  8
0
 10
2.73085
 20
0.37245
 30
0.0
 40
0.001488
 41
0.001488
  0
VERTEX
  8
0
 10
2.72657
 20
0.375814
 30
0.0
 40
0.001488
 41
0.001488
  0
VERTEX
  8
0
 10
2.72206
 20
0.378851
 30
0.0
 40
0.001488
 41
0.001488
  0
VERTEX
  8
0
 10
2.71733
 20
0.381456
 30
0.0
 40
0.001488
 41
0.001488
  0
VERTEX
  8
0
 10
2.71246
 20
0.383735
 30
0.0
 40
0.001488
 41
0.001488
  0
VERTEX
  8
0
 10
2.70736
 20
0.385633
 30
0.0
 40
0.001488
 41
0.001488
  0
VERTEX
  8
0
 10
2.70215
 20
0.387044
 30
0.0
 40
0.001488
 41
0.001488
  0
VERTEX
  8
0
 10
2.69683
 20
0.388129
 30
0.0
 40
0.001488
 41
0.001488
  0
VERTEX
  8
0
 10
2.69146
 20
0.388781
 30
0.0
 40
0.001488
 41
0.001488
  0
VERTEX
  8
0
 10
2.68608
 20
0.388943
 30
0.0
 40
0.001488
 41
0.001488
  0
VERTEX
  8
0
 10
2.68067
 20
0.388781
 30
0.0
 40
0.001488
 41
0.001488
  0
SEQEND
 8
0
  0
POLYLINE
  8
0
 62
     5
 66
     1
 10
0
 20
0
 30
0.0
 70
     1
 40
0.107136
 41
0.107136
  0
VERTEX
  8
0
 10
0.309571
 20
0.388781
 30
0.0
 40
0.001488
 41
0.001488
  0
VERTEX
  8
0
 10
0.304199
 20
0.388129
 30
0.0
 40
0.001488
 41
0.001488
  0
VERTEX
  8
0
 10
0.298882
 20
0.387044
 30
0.0
 40
0.001488
 41
0.001488
  0
VERTEX
  8
0
 10
0.293674
 20
0.385633
 30
0.0
 40
0.001488
 41
0.001488
  0
VERTEX
  8
0
 10
0.288629
 20
0.383735
 30
0.0
 40
0.001488
 41
0.001488
  0
VERTEX
  8
0
 10
0.283692
 20
0.381456
 30
0.0
 40
0.001488
 41
0.001488
  0
VERTEX
  8
0
 10
0.278971
 20
0.378851
 30
0.0
 40
0.001488
 41
0.001488
  0
VERTEX
  8
0
 10
0.274468
 20
0.375814
 30
0.0
 40
0.001488
 41
0.001488
  0
VERTEX
  8
0
 10
0.270236
 20
0.37245
 30
0.0
 40
0.001488
 41
0.001488
  0
VERTEX
  8
0
 10
0.266276
 20
0.368815
 30
0.0
 40
0.001488
 41
0.001488
  0
VERTEX
  8
0
 10
0.262587
 20
0.3648
 30
0.0
 40
0.001488
 41
0.001488
  0
VERTEX
  8
0
 10
0.259278
 20
0.360568
 30
0.0
 40
0.001488
 41
0.001488
  0
VERTEX
  8
0
 10
0.256239
 20
0.356065
 30
0.0
 40
0.001488
 41
0.001488
  0
VERTEX
  8
0
 10
0.253581
 20
0.351346
 30
0.0
 40
0.001488
 41
0.001488
  0
VERTEX
  8
0
 10
0.251357
 20
0.346462
 30
0.0
 40
0.001488
 41
0.001488
  0
VERTEX
  8
0
 10
0.249457
 20
0.341363
 30
0.0
 40
0.001488
 41
0.001488
  0
VERTEX
  8
0
 10
0.247993
 20
0.336154
 30
0.0
 40
0.001488
 41
0.001488
  0
VERTEX
  8
0
 10
0.246907
 20
0.330837
 30
0.0
 40
0.001488
 41
0.001488
  0
VERTEX
  8
0
 10
0.246311
 20
0.325521
 30
0.0
 40
0.001488
 41
0.001488
  0
VERTEX
  8
0
 10
0.246039
 20
0.320042
 30
0.0
 40
0.001488
 41
0.001488
  0
VERTEX
  8
0
 10
0.246311
 20
0.314671
 30
0.0
 40
0.001488
 41
0.001488
  0
VERTEX
  8
0
 10
0.246907
 20
0.309299
 30
0.0
 40
0.001488
 41
0.001488
  0
VERTEX
  8
0
 10
0.247993
 20
0.303982
 30
0.0
 40
0.001488
 41
0.001488
  0
VERTEX
  8
0
 10
0.249457
 20
0.298828
 30
0.0
 40
0.001488
 41
0.001488
  0
VERTEX
  8
0
 10
0.251357
 20
0.293728
 30
0.0
 40
0.001488
 41
0.001488
  0
VERTEX
  8
0
 10
0.253581
 20
0.288792
 30
0.0
 40
0.001488
 41
0.001488
  0
VERTEX
  8
0
 10
0.256239
 20
0.284071
 30
0.0
 40
0.001488
 41
0.001488
  0
VERTEX
  8
0
 10
0.259278
 20
0.279568
 30
0.0
 40
0.001488
 41
0.001488
  0
VERTEX
  8
0
 10
0.262587
 20
0.275336
 30
0.0
 40
0.001488
 41
0.001488
  0
VERTEX
  8
0
 10
0.266276
 20
0.271376
 30
0.0
 40
0.001488
 41
0.001488
  0
VERTEX
  8
0
 10
0.270236
 20
0.267686
 30
0.0
 40
0.001488
 41
0.001488
  0
VERTEX
  8
0
 10
0.274468
 20
0.264378
 30
0.0
 40
0.001488
 41
0.001488
  0
VERTEX
  8
0
 10
0.278971
 20
0.261339
 30
0.0
 40
0.001488
 41
0.001488
  0
VERTEX
  8
0
 10
0.283692
 20
0.258681
 30
0.0
 40
0.001488
 41
0.001488
  0
VERTEX
  8
0
 10
0.288629
 20
0.256456
 30
0.0
 40
0.001488
 41
0.001488
  0
VERTEX
  8
0
 10
0.293674
 20
0.254557
 30
0.0
 40
0.001488
 41
0.001488
  0
VERTEX
  8
0
 10
0.298882
 20
0.253093
 30
0.0
 40
0.001488
 41
0.001488
  0
VERTEX
  8
0
 10
0.304199
 20
0.252007
 30
0.0
 40
0.001488
 41
0.001488
  0
VERTEX
  8
0
 10
0.309571
 20
0.251411
 30
0.0
 40
0.001488
 41
0.001488
  0
VERTEX
  8
0
 10
0.314996
 20
0.251139
 30
0.0
 40
0.001488
 41
0.001488
  0
VERTEX
  8
0
 10
0.320367
 20
0.251411
 30
0.0
 40
0.001488
 41
0.001488
  0
VERTEX
  8
0
 10
0.325738
 20
0.252007
 30
0.0
 40
0.001488
 41
0.001488
  0
VERTEX
  8
0
 10
0.331054
 20
0.253093
 30
0.0
 40
0.001488
 41
0.001488
  0
VERTEX
  8
0
 10
0.336262
 20
0.254557
 30
0.0
 40
0.001488
 41
0.001488
  0
VERTEX
  8
0
 10
0.341363
 20
0.256456
 30
0.0
 40
0.001488
 41
0.001488
  0
VERTEX
  8
0
 10
0.346246
 20
0.258681
 30
0.0
 40
0.001488
 41
0.001488
  0
VERTEX
  8
0
 10
0.350965
 20
0.261339
 30
0.0
 40
0.001488
 41
0.001488
  0
VERTEX
  8
0
 10
0.355469
 20
0.264378
 30
0.0
 40
0.001488
 41
0.001488
  0
VERTEX
  8
0
 10
0.3597
 20
0.267686
 30
0.0
 40
0.001488
 41
0.001488
  0
VERTEX
  8
0
 10
0.363715
 20
0.271376
 30
0.0
 40
0.001488
 41
0.001488
  0
VERTEX
  8
0
 10
0.36735
 20
0.275336
 30
0.0
 40
0.001488
 41
0.001488
  0
VERTEX
  8
0
 10
0.370714
 20
0.279568
 30
0.0
 40
0.001488
 41
0.001488
  0
VERTEX
  8
0
 10
0.373753
 20
0.284071
 30
0.0
 40
0.001488
 41
0.001488
  0
VERTEX
  8
0
 10
0.376357
 20
0.288792
 30
0.0
 40
0.001488
 41
0.001488
  0
VERTEX
  8
0
 10
0.378635
 20
0.293728
 30
0.0
 40
0.001488
 41
0.001488
  0
VERTEX
  8
0
 10
0.380533
 20
0.298828
 30
0.0
 40
0.001488
 41
0.001488
  0
VERTEX
  8
0
 10
0.381944
 20
0.303982
 30
0.0
 40
0.001488
 41
0.001488
  0
VERTEX
  8
0
 10
0.383029
 20
0.309299
 30
0.0
 40
0.001488
 41
0.001488
  0
VERTEX
  8
0
 10
0.383681
 20
0.314671
 30
0.0
 40
0.001488
 41
0.001488
  0
VERTEX
  8
0
 10
0.383897
 20
0.320042
 30
0.0
 40
0.001488
 41
0.001488
  0
VERTEX
  8
0
 10
0.383681
 20
0.325521
 30
0.0
 40
0.001488
 41
0.001488
  0
VERTEX
  8
0
 10
0.383029
 20
0.330837
 30
0.0
 40
0.001488
 41
0.001488
  0
VERTEX
  8
0
 10
0.381944
 20
0.336154
 30
0.0
 40
0.001488
 41
0.001488
  0
VERTEX
  8
0
 10
0.380533
 20
0.341363
 30
0.0
 40
0.001488
 41
0.001488
  0
VERTEX
  8
0
 10
0.378635
 20
0.346462
 30
0.0
 40
0.001488
 41
0.001488
  0
VERTEX
  8
0
 10
0.376357
 20
0.351346
 30
0.0
 40
0.001488
 41
0.001488
  0
VERTEX
  8
0
 10
0.373753
 20
0.356065
 30
0.0
 40
0.001488
 41
0.001488
  0
VERTEX
  8
0
 10
0.370714
 20
0.360568
 30
0.0
 40
0.001488
 41
0.001488
  0
VERTEX
  8
0
 10
0.36735
 20
0.3648
 30
0.0
 40
0.001488
 41
0.001488
  0
VERTEX
  8
0
 10
0.363715
 20
0.368815
 30
0.0
 40
0.001488
 41
0.001488
  0
VERTEX
  8
0
 10
0.3597
 20
0.37245
 30
0.0
 40
0.001488
 41
0.001488
  0
VERTEX
  8
0
 10
0.355469
 20
0.375814
 30
0.0
 40
0.001488
 41
0.001488
  0
VERTEX
  8
0
 10
0.350965
 20
0.378851
 30
0.0
 40
0.001488
 41
0.001488
  0
VERTEX
  8
0
 10
0.346246
 20
0.381456
 30
0.0
 40
0.001488
 41
0.001488
  0
VERTEX
  8
0
 10
0.341363
 20
0.383735
 30
0.0
 40
0.001488
 41
0.001488
  0
VERTEX
  8
0
 10
0.336262
 20
0.385633
 30
0.0
 40
0.001488
 41
0.001488
  0
VERTEX
  8
0
 10
0.331054
 20
0.387044
 30
0.0
 40
0.001488
 41
0.001488
  0
VERTEX
  8
0
 10
0.325738
 20
0.388129
 30
0.0
 40
0.001488
 41
0.001488
  0
VERTEX
  8
0
 10
0.320367
 20
0.388781
 30
0.0
 40
0.001488
 41
0.001488
  0
VERTEX
  8
0
 10
0.314996
 20
0.388943
 30
0.0
 40
0.001488
 41
0.001488
  0
VERTEX
  8
0
 10
0.309571
 20
0.388781
 30
0.0
 40
0.001488
 41
0.001488
  0
SEQEND
 8
0
  0
POLYLINE
  8
0
 62
     5
 66
     1
 10
0
 20
0
 30
0.0
 70
     1
 40
0.107136
 41
0.107136
  0
VERTEX
  8
0
 10
5.05171
 20
0.388781
 30
0.0
 40
0.001488
 41
0.001488
  0
VERTEX
  8
0
 10
5.04633
 20
0.388129
 30
0.0
 40
0.001488
 41
0.001488
  0
VERTEX
  8
0
 10
5.04107
 20
0.387044
 30
0.0
 40
0.001488
 41
0.001488
  0
VERTEX
  8
0
 10
5.03586
 20
0.385633
 30
0.0
 40
0.001488
 41
0.001488
  0
VERTEX
  8
0
 10
5.03076
 20
0.383735
 30
0.0
 40
0.001488
 41
0.001488
  0
VERTEX
  8
0
 10
5.02588
 20
0.381456
 30
0.0
 40
0.001488
 41
0.001488
  0
VERTEX
  8
0
 10
5.02115
 20
0.378851
 30
0.0
 40
0.001488
 41
0.001488
  0
VERTEX
  8
0
 10
5.01665
 20
0.375814
 30
0.0
 40
0.001488
 41
0.001488
  0
VERTEX
  8
0
 10
5.01243
 20
0.37245
 30
0.0
 40
0.001488
 41
0.001488
  0
VERTEX
  8
0
 10
5.0084
 20
0.368815
 30
0.0
 40
0.001488
 41
0.001488
  0
VERTEX
  8
0
 10
5.00478
 20
0.3648
 30
0.0
 40
0.001488
 41
0.001488
  0
VERTEX
  8
0
 10
5.00142
 20
0.360568
 30
0.0
 40
0.001488
 41
0.001488
  0
VERTEX
  8
0
 10
4.99837
 20
0.356065
 30
0.0
 40
0.001488
 41
0.001488
  0
VERTEX
  8
0
 10
4.99576
 20
0.351346
 30
0.0
 40
0.001488
 41
0.001488
  0
VERTEX
  8
0
 10
4.99349
 20
0.346462
 30
0.0
 40
0.001488
 41
0.001488
  0
VERTEX
  8
0
 10
4.9916
 20
0.341363
 30
0.0
 40
0.001488
 41
0.001488
  0
VERTEX
  8
0
 10
4.99018
 20
0.336154
 30
0.0
 40
0.001488
 41
0.001488
  0
VERTEX
  8
0
 10
4.9891
 20
0.330837
 30
0.0
 40
0.001488
 41
0.001488
  0
VERTEX
  8
0
 10
4.98844
 20
0.325521
 30
0.0
 40
0.001488
 41
0.001488
  0
VERTEX
  8
0
 10
4.98822
 20
0.320042
 30
0.0
 40
0.001488
 41
0.001488
  0
VERTEX
  8
0
 10
4.98844
 20
0.314671
 30
0.0
 40
0.001488
 41
0.001488
  0
VERTEX
  8
0
 10
4.9891
 20
0.309299
 30
0.0
 40
0.001488
 41
0.001488
  0
VERTEX
  8
0
 10
4.99018
 20
0.303982
 30
0.0
 40
0.001488
 41
0.001488
  0
VERTEX
  8
0
 10
4.9916
 20
0.298828
 30
0.0
 40
0.001488
 41
0.001488
  0
VERTEX
  8
0
 10
4.99349
 20
0.293728
 30
0.0
 40
0.001488
 41
0.001488
  0
VERTEX
  8
0
 10
4.99576
 20
0.288792
 30
0.0
 40
0.001488
 41
0.001488
  0
VERTEX
  8
0
 10
4.99837
 20
0.284071
 30
0.0
 40
0.001488
 41
0.001488
  0
VERTEX
  8
0
 10
5.00142
 20
0.279568
 30
0.0
 40
0.001488
 41
0.001488
  0
VERTEX
  8
0
 10
5.00478
 20
0.275336
 30
0.0
 40
0.001488
 41
0.001488
  0
VERTEX
  8
0
 10
5.0084
 20
0.271376
 30
0.0
 40
0.001488
 41
0.001488
  0
VERTEX
  8
0
 10
5.01243
 20
0.267686
 30
0.0
 40
0.001488
 41
0.001488
  0
VERTEX
  8
0
 10
5.01665
 20
0.264378
 30
0.0
 40
0.001488
 41
0.001488
  0
VERTEX
  8
0
 10
5.02115
 20
0.261339
 30
0.0
 40
0.001488
 41
0.001488
  0
VERTEX
  8
0
 10
5.02588
 20
0.258681
 30
0.0
 40
0.001488
 41
0.001488
  0
VERTEX
  8
0
 10
5.03076
 20
0.256456
 30
0.0
 40
0.001488
 41
0.001488
  0
VERTEX
  8
0
 10
5.03586
 20
0.254557
 30
0.0
 40
0.001488
 41
0.001488
  0
VERTEX
  8
0
 10
5.04107
 20
0.253093
 30
0.0
 40
0.001488
 41
0.001488
  0
VERTEX
  8
0
 10
5.04633
 20
0.252007
 30
0.0
 40
0.001488
 41
0.001488
  0
VERTEX
  8
0
 10
5.05171
 20
0.251411
 30
0.0
 40
0.001488
 41
0.001488
  0
VERTEX
  8
0
 10
5.05707
 20
0.251139
 30
0.0
 40
0.001488
 41
0.001488
  0
VERTEX
  8
0
 10
5.06256
 20
0.251411
 30
0.0
 40
0.001488
 41
0.001488
  0
VERTEX
  8
0
 10
5.06787
 20
0.252007
 30
0.0
 40
0.001488
 41
0.001488
  0
VERTEX
  8
0
 10
5.07324
 20
0.253093
 30
0.0
 40
0.001488
 41
0.001488
  0
VERTEX
  8
0
 10
5.07844
 20
0.254557
 30
0.0
 40
0.001488
 41
0.001488
  0
VERTEX
  8
0
 10
5.0835
 20
0.256456
 30
0.0
 40
0.001488
 41
0.001488
  0
VERTEX
  8
0
 10
5.08843
 20
0.258681
 30
0.0
 40
0.001488
 41
0.001488
  0
VERTEX
  8
0
 10
5.09315
 20
0.261339
 30
0.0
 40
0.001488
 41
0.001488
  0
VERTEX
  8
0
 10
5.09765
 20
0.264378
 30
0.0
 40
0.001488
 41
0.001488
  0
VERTEX
  8
0
 10
5.10183
 20
0.267686
 30
0.0
 40
0.001488
 41
0.001488
  0
VERTEX
  8
0
 10
5.10585
 20
0.271376
 30
0.0
 40
0.001488
 41
0.001488
  0
VERTEX
  8
0
 10
5.10954
 20
0.275336
 30
0.0
 40
0.001488
 41
0.001488
  0
VERTEX
  8
0
 10
5.11285
 20
0.279568
 30
0.0
 40
0.001488
 41
0.001488
  0
VERTEX
  8
0
 10
5.11589
 20
0.284071
 30
0.0
 40
0.001488
 41
0.001488
  0
VERTEX
  8
0
 10
5.11849
 20
0.288792
 30
0.0
 40
0.001488
 41
0.001488
  0
VERTEX
  8
0
 10
5.12076
 20
0.293728
 30
0.0
 40
0.001488
 41
0.001488
  0
VERTEX
  8
0
 10
5.12267
 20
0.298828
 30
0.0
 40
0.001488
 41
0.001488
  0
VERTEX
  8
0
 10
5.12408
 20
0.303982
 30
0.0
 40
0.001488
 41
0.001488
  0
VERTEX
  8
0
 10
5.12522
 20
0.309299
 30
0.0
 40
0.001488
 41
0.001488
  0
VERTEX
  8
0
 10
5.12582
 20
0.314671
 30
0.0
 40
0.001488
 41
0.001488
  0
VERTEX
  8
0
 10
5.12608
 20
0.320042
 30
0.0
 40
0.001488
 41
0.001488
  0
VERTEX
  8
0
 10
5.12582
 20
0.325521
 30
0.0
 40
0.001488
 41
0.001488
  0
VERTEX
  8
0
 10
5.12522
 20
0.330837
 30
0.0
 40
0.001488
 41
0.001488
  0
VERTEX
  8
0
 10
5.12408
 20
0.336154
 30
0.0
 40
0.001488
 41
0.001488
  0
VERTEX
  8
0
 10
5.12267
 20
0.341363
 30
0.0
 40
0.001488
 41
0.001488
  0
VERTEX
  8
0
 10
5.12076
 20
0.346462
 30
0.0
 40
0.001488
 41
0.001488
  0
VERTEX
  8
0
 10
5.11849
 20
0.351346
 30
0.0
 40
0.001488
 41
0.001488
  0
VERTEX
  8
0
 10
5.11589
 20
0.356065
 30
0.0
 40
0.001488
 41
0.001488
  0
VERTEX
  8
0
 10
5.11285
 20
0.360568
 30
0.0
 40
0.001488
 41
0.001488
  0
VERTEX
  8
0
 10
5.10954
 20
0.3648
 30
0.0
 40
0.001488
 41
0.001488
  0
VERTEX
  8
0
 10
5.10585
 20
0.368815
 30
0.0
 40
0.001488
 41
0.001488
  0
VERTEX
  8
0
 10
5.10183
 20
0.37245
 30
0.0
 40
0.001488
 41
0.001488
  0
VERTEX
  8
0
 10
5.09765
 20
0.375814
 30
0.0
 40
0.001488
 41
0.001488
  0
VERTEX
  8
0
 10
5.09315
 20
0.378851
 30
0.0
 40
0.001488
 41
0.001488
  0
VERTEX
  8
0
 10
5.08843
 20
0.381456
 30
0.0
 40
0.001488
 41
0.001488
  0
VERTEX
  8
0
 10
5.0835
 20
0.383735
 30
0.0
 40
0.001488
 41
0.001488
  0
VERTEX
  8
0
 10
5.07844
 20
0.385633
 30
0.0
 40
0.001488
 41
0.001488
  0
VERTEX
  8
0
 10
5.07324
 20
0.387044
 30
0.0
 40
0.001488
 41
0.001488
  0
VERTEX
  8
0
 10
5.06787
 20
0.388129
 30
0.0
 40
0.001488
 41
0.001488
  0
VERTEX
  8
0
 10
5.06256
 20
0.388781
 30
0.0
 40
0.001488
 41
0.001488
  0
VERTEX
  8
0
 10
5.05707
 20
0.388943
 30
0.0
 40
0.001488
 41
0.001488
  0
VERTEX
  8
0
 10
5.05171
 20
0.388781
 30
0.0
 40
0.001488
 41
0.001488
  0
SEQEND
 8
0
  0
POLYLINE
  8
0
 62
     5
 66
     1
 10
0
 20
0
 30
0.0
 70
     1
 40
0.107136
 41
0.107136
  0
VERTEX
  8
0
 10
0.309571
 20
2.38487
 30
0.0
 40
0.001488
 41
0.001488
  0
VERTEX
  8
0
 10
0.304199
 20
2.38417
 30
0.0
 40
0.001488
 41
0.001488
  0
VERTEX
  8
0
 10
0.298882
 20
2.38319
 30
0.0
 40
0.001488
 41
0.001488
  0
VERTEX
  8
0
 10
0.293674
 20
2.38167
 30
0.0
 40
0.001488
 41
0.001488
  0
VERTEX
  8
0
 10
0.288629
 20
2.37983
 30
0.0
 40
0.001488
 41
0.001488
  0
VERTEX
  8
0
 10
0.283692
 20
2.37756
 30
0.0
 40
0.001488
 41
0.001488
  0
VERTEX
  8
0
 10
0.278971
 20
2.37489
 30
0.0
 40
0.001488
 41
0.001488
  0
VERTEX
  8
0
 10
0.274468
 20
2.3719
 30
0.0
 40
0.001488
 41
0.001488
  0
VERTEX
  8
0
 10
0.270236
 20
2.36854
 30
0.0
 40
0.001488
 41
0.001488
  0
VERTEX
  8
0
 10
0.266276
 20
2.36486
 30
0.0
 40
0.001488
 41
0.001488
  0
VERTEX
  8
0
 10
0.262587
 20
2.36094
 30
0.0
 40
0.001488
 41
0.001488
  0
VERTEX
  8
0
 10
0.259278
 20
2.35667
 30
0.0
 40
0.001488
 41
0.001488
  0
VERTEX
  8
0
 10
0.256239
 20
2.35215
 30
0.0
 40
0.001488
 41
0.001488
  0
VERTEX
  8
0
 10
0.253581
 20
2.34744
 30
0.0
 40
0.001488
 41
0.001488
  0
VERTEX
  8
0
 10
0.251357
 20
2.34256
 30
0.0
 40
0.001488
 41
0.001488
  0
VERTEX
  8
0
 10
0.249457
 20
2.33746
 30
0.0
 40
0.001488
 41
0.001488
  0
VERTEX
  8
0
 10
0.247993
 20
2.33225
 30
0.0
 40
0.001488
 41
0.001488
  0
VERTEX
  8
0
 10
0.246907
 20
2.32693
 30
0.0
 40
0.001488
 41
0.001488
  0
VERTEX
  8
0
 10
0.246311
 20
2.32156
 30
0.0
 40
0.001488
 41
0.001488
  0
VERTEX
  8
0
 10
0.246039
 20
2.31619
 30
0.0
 40
0.001488
 41
0.001488
  0
VERTEX
  8
0
 10
0.246311
 20
2.31076
 30
0.0
 40
0.001488
 41
0.001488
  0
VERTEX
  8
0
 10
0.246907
 20
2.30539
 30
0.0
 40
0.001488
 41
0.001488
  0
VERTEX
  8
0
 10
0.247993
 20
2.30007
 30
0.0
 40
0.001488
 41
0.001488
  0
VERTEX
  8
0
 10
0.249457
 20
2.29486
 30
0.0
 40
0.001488
 41
0.001488
  0
VERTEX
  8
0
 10
0.251357
 20
2.28976
 30
0.0
 40
0.001488
 41
0.001488
  0
VERTEX
  8
0
 10
0.253581
 20
2.28489
 30
0.0
 40
0.001488
 41
0.001488
  0
VERTEX
  8
0
 10
0.256239
 20
2.28017
 30
0.0
 40
0.001488
 41
0.001488
  0
VERTEX
  8
0
 10
0.259278
 20
2.27567
 30
0.0
 40
0.001488
 41
0.001488
  0
VERTEX
  8
0
 10
0.262587
 20
2.27138
 30
0.0
 40
0.001488
 41
0.001488
  0
VERTEX
  8
0
 10
0.266276
 20
2.26747
 30
0.0
 40
0.001488
 41
0.001488
  0
VERTEX
  8
0
 10
0.270236
 20
2.26378
 30
0.0
 40
0.001488
 41
0.001488
  0
VERTEX
  8
0
 10
0.274468
 20
2.26042
 30
0.0
 40
0.001488
 41
0.001488
  0
VERTEX
  8
0
 10
0.278971
 20
2.25743
 30
0.0
 40
0.001488
 41
0.001488
  0
VERTEX
  8
0
 10
0.283692
 20
2.25478
 30
0.0
 40
0.001488
 41
0.001488
  0
VERTEX
  8
0
 10
0.288629
 20
2.2525
 30
0.0
 40
0.001488
 41
0.001488
  0
VERTEX
  8
0
 10
0.293674
 20
2.25065
 30
0.0
 40
0.001488
 41
0.001488
  0
VERTEX
  8
0
 10
0.298882
 20
2.24914
 30
0.0
 40
0.001488
 41
0.001488
  0
VERTEX
  8
0
 10
0.304199
 20
2.24815
 30
0.0
 40
0.001488
 41
0.001488
  0
VERTEX
  8
0
 10
0.309571
 20
2.24744
 30
0.0
 40
0.001488
 41
0.001488
  0
VERTEX
  8
0
 10
0.314996
 20
2.24729
 30
0.0
 40
0.001488
 41
0.001488
  0
VERTEX
  8
0
 10
0.320367
 20
2.24744
 30
0.0
 40
0.001488
 41
0.001488
  0
VERTEX
  8
0
 10
0.325738
 20
2.24815
 30
0.0
 40
0.001488
 41
0.001488
  0
VERTEX
  8
0
 10
0.331054
 20
2.24914
 30
0.0
 40
0.001488
 41
0.001488
  0
VERTEX
  8
0
 10
0.336262
 20
2.25065
 30
0.0
 40
0.001488
 41
0.001488
  0
VERTEX
  8
0
 10
0.341363
 20
2.2525
 30
0.0
 40
0.001488
 41
0.001488
  0
VERTEX
  8
0
 10
0.346246
 20
2.25478
 30
0.0
 40
0.001488
 41
0.001488
  0
VERTEX
  8
0
 10
0.350965
 20
2.25743
 30
0.0
 40
0.001488
 41
0.001488
  0
VERTEX
  8
0
 10
0.355469
 20
2.26042
 30
0.0
 40
0.001488
 41
0.001488
  0
VERTEX
  8
0
 10
0.3597
 20
2.26378
 30
0.0
 40
0.001488
 41
0.001488
  0
VERTEX
  8
0
 10
0.363715
 20
2.26747
 30
0.0
 40
0.001488
 41
0.001488
  0
VERTEX
  8
0
 10
0.36735
 20
2.27138
 30
0.0
 40
0.001488
 41
0.001488
  0
VERTEX
  8
0
 10
0.370714
 20
2.27567
 30
0.0
 40
0.001488
 41
0.001488
  0
VERTEX
  8
0
 10
0.373753
 20
2.28017
 30
0.0
 40
0.001488
 41
0.001488
  0
VERTEX
  8
0
 10
0.376357
 20
2.28489
 30
0.0
 40
0.001488
 41
0.001488
  0
VERTEX
  8
0
 10
0.378635
 20
2.28976
 30
0.0
 40
0.001488
 41
0.001488
  0
VERTEX
  8
0
 10
0.380533
 20
2.29486
 30
0.0
 40
0.001488
 41
0.001488
  0
VERTEX
  8
0
 10
0.381944
 20
2.30007
 30
0.0
 40
0.001488
 41
0.001488
  0
VERTEX
  8
0
 10
0.383029
 20
2.30539
 30
0.0
 40
0.001488
 41
0.001488
  0
VERTEX
  8
0
 10
0.383681
 20
2.31076
 30
0.0
 40
0.001488
 41
0.001488
  0
VERTEX
  8
0
 10
0.383897
 20
2.31619
 30
0.0
 40
0.001488
 41
0.001488
  0
VERTEX
  8
0
 10
0.383681
 20
2.32156
 30
0.0
 40
0.001488
 41
0.001488
  0
VERTEX
  8
0
 10
0.383029
 20
2.32693
 30
0.0
 40
0.001488
 41
0.001488
  0
VERTEX
  8
0
 10
0.381944
 20
2.33225
 30
0.0
 40
0.001488
 41
0.001488
  0
VERTEX
  8
0
 10
0.380533
 20
2.33746
 30
0.0
 40
0.001488
 41
0.001488
  0
VERTEX
  8
0
 10
0.378635
 20
2.34256
 30
0.0
 40
0.001488
 41
0.001488
  0
VERTEX
  8
0
 10
0.376357
 20
2.34744
 30
0.0
 40
0.001488
 41
0.001488
  0
VERTEX
  8
0
 10
0.373753
 20
2.35215
 30
0.0
 40
0.001488
 41
0.001488
  0
VERTEX
  8
0
 10
0.370714
 20
2.35667
 30
0.0
 40
0.001488
 41
0.001488
  0
VERTEX
  8
0
 10
0.36735
 20
2.36094
 30
0.0
 40
0.001488
 41
0.001488
  0
VERTEX
  8
0
 10
0.363715
 20
2.36486
 30
0.0
 40
0.001488
 41
0.001488
  0
VERTEX
  8
0
 10
0.3597
 20
2.36854
 30
0.0
 40
0.001488
 41
0.001488
  0
VERTEX
  8
0
 10
0.355469
 20
2.3719
 30
0.0
 40
0.001488
 41
0.001488
  0
VERTEX
  8
0
 10
0.350965
 20
2.37489
 30
0.0
 40
0.001488
 41
0.001488
  0
VERTEX
  8
0
 10
0.346246
 20
2.37756
 30
0.0
 40
0.001488
 41
0.001488
  0
VERTEX
  8
0
 10
0.341363
 20
2.37983
 30
0.0
 40
0.001488
 41
0.001488
  0
VERTEX
  8
0
 10
0.336262
 20
2.38167
 30
0.0
 40
0.001488
 41
0.001488
  0
VERTEX
  8
0
 10
0.331054
 20
2.38319
 30
0.0
 40
0.001488
 41
0.001488
  0
VERTEX
  8
0
 10
0.325738
 20
2.38417
 30
0.0
 40
0.001488
 41
0.001488
  0
VERTEX
  8
0
 10
0.320367
 20
2.38487
 30
0.0
 40
0.001488
 41
0.001488
  0
VERTEX
  8
0
 10
0.314996
 20
2.38504
 30
0.0
 40
0.001488
 41
0.001488
  0
VERTEX
  8
0
 10
0.309571
 20
2.38487
 30
0.0
 40
0.001488
 41
0.001488
  0
SEQEND
 8
0
  0
POLYLINE
  8
0
 62
     5
 66
     1
 10
0
 20
0
 30
0.0
 70
     1
 40
0.107136
 41
0.107136
  0
VERTEX
  8
0
 10
5.05171
 20
2.38487
 30
0.0
 40
0.001488
 41
0.001488
  0
VERTEX
  8
0
 10
5.04633
 20
2.38417
 30
0.0
 40
0.001488
 41
0.001488
  0
VERTEX
  8
0
 10
5.04107
 20
2.38319
 30
0.0
 40
0.001488
 41
0.001488
  0
VERTEX
  8
0
 10
5.03586
 20
2.38167
 30
0.0
 40
0.001488
 41
0.001488
  0
VERTEX
  8
0
 10
5.03076
 20
2.37983
 30
0.0
 40
0.001488
 41
0.001488
  0
VERTEX
  8
0
 10
5.02588
 20
2.37756
 30
0.0
 40
0.001488
 41
0.001488
  0
VERTEX
  8
0
 10
5.02115
 20
2.37489
 30
0.0
 40
0.001488
 41
0.001488
  0
VERTEX
  8
0
 10
5.01665
 20
2.3719
 30
0.0
 40
0.001488
 41
0.001488
  0
VERTEX
  8
0
 10
5.01243
 20
2.36854
 30
0.0
 40
0.001488
 41
0.001488
  0
VERTEX
  8
0
 10
5.0084
 20
2.36486
 30
0.0
 40
0.001488
 41
0.001488
  0
VERTEX
  8
0
 10
5.00478
 20
2.36094
 30
0.0
 40
0.001488
 41
0.001488
  0
VERTEX
  8
0
 10
5.00142
 20
2.35667
 30
0.0
 40
0.001488
 41
0.001488
  0
VERTEX
  8
0
 10
4.99837
 20
2.35215
 30
0.0
 40
0.001488
 41
0.001488
  0
VERTEX
  8
0
 10
4.99576
 20
2.34744
 30
0.0
 40
0.001488
 41
0.001488
  0
VERTEX
  8
0
 10
4.99349
 20
2.34256
 30
0.0
 40
0.001488
 41
0.001488
  0
VERTEX
  8
0
 10
4.9916
 20
2.33746
 30
0.0
 40
0.001488
 41
0.001488
  0
VERTEX
  8
0
 10
4.99018
 20
2.33225
 30
0.0
 40
0.001488
 41
0.001488
  0
VERTEX
  8
0
 10
4.9891
 20
2.32693
 30
0.0
 40
0.001488
 41
0.001488
  0
VERTEX
  8
0
 10
4.98844
 20
2.32156
 30
0.0
 40
0.001488
 41
0.001488
  0
VERTEX
  8
0
 10
4.98822
 20
2.31619
 30
0.0
 40
0.001488
 41
0.001488
  0
VERTEX
  8
0
 10
4.98844
 20
2.31076
 30
0.0
 40
0.001488
 41
0.001488
  0
VERTEX
  8
0
 10
4.9891
 20
2.30539
 30
0.0
 40
0.001488
 41
0.001488
  0
VERTEX
  8
0
 10
4.99018
 20
2.30007
 30
0.0
 40
0.001488
 41
0.001488
  0
VERTEX
  8
0
 10
4.9916
 20
2.29486
 30
0.0
 40
0.001488
 41
0.001488
  0
VERTEX
  8
0
 10
4.99349
 20
2.28976
 30
0.0
 40
0.001488
 41
0.001488
  0
VERTEX
  8
0
 10
4.99576
 20
2.28489
 30
0.0
 40
0.001488
 41
0.001488
  0
VERTEX
  8
0
 10
4.99837
 20
2.28017
 30
0.0
 40
0.001488
 41
0.001488
  0
VERTEX
  8
0
 10
5.00142
 20
2.27567
 30
0.0
 40
0.001488
 41
0.001488
  0
VERTEX
  8
0
 10
5.00478
 20
2.27138
 30
0.0
 40
0.001488
 41
0.001488
  0
VERTEX
  8
0
 10
5.0084
 20
2.26747
 30
0.0
 40
0.001488
 41
0.001488
  0
VERTEX
  8
0
 10
5.01243
 20
2.26378
 30
0.0
 40
0.001488
 41
0.001488
  0
VERTEX
  8
0
 10
5.01665
 20
2.26042
 30
0.0
 40
0.001488
 41
0.001488
  0
VERTEX
  8
0
 10
5.02115
 20
2.25743
 30
0.0
 40
0.001488
 41
0.001488
  0
VERTEX
  8
0
 10
5.02588
 20
2.25478
 30
0.0
 40
0.001488
 41
0.001488
  0
VERTEX
  8
0
 10
5.03076
 20
2.2525
 30
0.0
 40
0.001488
 41
0.001488
  0
VERTEX
  8
0
 10
5.03586
 20
2.25065
 30
0.0
 40
0.001488
 41
0.001488
  0
VERTEX
  8
0
 10
5.04107
 20
2.24914
 30
0.0
 40
0.001488
 41
0.001488
  0
VERTEX
  8
0
 10
5.04633
 20
2.24815
 30
0.0
 40
0.001488
 41
0.001488
  0
VERTEX
  8
0
 10
5.05171
 20
2.24744
 30
0.0
 40
0.001488
 41
0.001488
  0
VERTEX
  8
0
 10
5.05707
 20
2.24729
 30
0.0
 40
0.001488
 41
0.001488
  0
VERTEX
  8
0
 10
5.06256
 20
2.24744
 30
0.0
 40
0.001488
 41
0.001488
  0
VERTEX
  8
0
 10
5.06787
 20
2.24815
 30
0.0
 40
0.001488
 41
0.001488
  0
VERTEX
  8
0
 10
5.07324
 20
2.24914
 30
0.0
 40
0.001488
 41
0.001488
  0
VERTEX
  8
0
 10
5.07844
 20
2.25065
 30
0.0
 40
0.001488
 41
0.001488
  0
VERTEX
  8
0
 10
5.0835
 20
2.2525
 30
0.0
 40
0.001488
 41
0.001488
  0
VERTEX
  8
0
 10
5.08843
 20
2.25478
 30
0.0
 40
0.001488
 41
0.001488
  0
VERTEX
  8
0
 10
5.09315
 20
2.25743
 30
0.0
 40
0.001488
 41
0.001488
  0
VERTEX
  8
0
 10
5.09765
 20
2.26042
 30
0.0
 40
0.001488
 41
0.001488
  0
VERTEX
  8
0
 10
5.10183
 20
2.26378
 30
0.0
 40
0.001488
 41
0.001488
  0
VERTEX
  8
0
 10
5.10585
 20
2.26747
 30
0.0
 40
0.001488
 41
0.001488
  0
VERTEX
  8
0
 10
5.10954
 20
2.27138
 30
0.0
 40
0.001488
 41
0.001488
  0
VERTEX
  8
0
 10
5.11285
 20
2.27567
 30
0.0
 40
0.001488
 41
0.001488
  0
VERTEX
  8
0
 10
5.11589
 20
2.28017
 30
0.0
 40
0.001488
 41
0.001488
  0
VERTEX
  8
0
 10
5.11849
 20
2.28489
 30
0.0
 40
0.001488
 41
0.001488
  0
VERTEX
  8
0
 10
5.12076
 20
2.28976
 30
0.0
 40
0.001488
 41
0.001488
  0
VERTEX
  8
0
 10
5.12267
 20
2.29486
 30
0.0
 40
0.001488
 41
0.001488
  0
VERTEX
  8
0
 10
5.12408
 20
2.30007
 30
0.0
 40
0.001488
 41
0.001488
  0
VERTEX
  8
0
 10
5.12522
 20
2.30539
 30
0.0
 40
0.001488
 41
0.001488
  0
VERTEX
  8
0
 10
5.12582
 20
2.31076
 30
0.0
 40
0.001488
 41
0.001488
  0
VERTEX
  8
0
 10
5.12608
 20
2.31619
 30
0.0
 40
0.001488
 41
0.001488
  0
VERTEX
  8
0
 10
5.12582
 20
2.32156
 30
0.0
 40
0.001488
 41
0.001488
  0
VERTEX
  8
0
 10
5.12522
 20
2.32693
 30
0.0
 40
0.001488
 41
0.001488
  0
VERTEX
  8
0
 10
5.12408
 20
2.33225
 30
0.0
 40
0.001488
 41
0.001488
  0
VERTEX
  8
0
 10
5.12267
 20
2.33746
 30
0.0
 40
0.001488
 41
0.001488
  0
VERTEX
  8
0
 10
5.12076
 20
2.34256
 30
0.0
 40
0.001488
 41
0.001488
  0
VERTEX
  8
0
 10
5.11849
 20
2.34744
 30
0.0
 40
0.001488
 41
0.001488
  0
VERTEX
  8
0
 10
5.11589
 20
2.35215
 30
0.0
 40
0.001488
 41
0.001488
  0
VERTEX
  8
0
 10
5.11285
 20
2.35667
 30
0.0
 40
0.001488
 41
0.001488
  0
VERTEX
  8
0
 10
5.10954
 20
2.36094
 30
0.0
 40
0.001488
 41
0.001488
  0
VERTEX
  8
0
 10
5.10585
 20
2.36486
 30
0.0
 40
0.001488
 41
0.001488
  0
VERTEX
  8
0
 10
5.10183
 20
2.36854
 30
0.0
 40
0.001488
 41
0.001488
  0
VERTEX
  8
0
 10
5.09765
 20
2.3719
 30
0.0
 40
0.001488
 41
0.001488
  0
VERTEX
  8
0
 10
5.09315
 20
2.37489
 30
0.0
 40
0.001488
 41
0.001488
  0
VERTEX
  8
0
 10
5.08843
 20
2.37756
 30
0.0
 40
0.001488
 41
0.001488
  0
VERTEX
  8
0
 10
5.0835
 20
2.37983
 30
0.0
 40
0.001488
 41
0.001488
  0
VERTEX
  8
0
 10
5.07844
 20
2.38167
 30
0.0
 40
0.001488
 41
0.001488
  0
VERTEX
  8
0
 10
5.07324
 20
2.38319
 30
0.0
 40
0.001488
 41
0.001488
  0
VERTEX
  8
0
 10
5.06787
 20
2.38417
 30
0.0
 40
0.001488
 41
0.001488
  0
VERTEX
  8
0
 10
5.06256
 20
2.38487
 30
0.0
 40
0.001488
 41
0.001488
  0
VERTEX
  8
0
 10
5.05707
 20
2.38504
 30
0.0
 40
0.001488
 41
0.001488
  0
VERTEX
  8
0
 10
5.05171
 20
2.38487
 30
0.0
 40
0.001488
 41
0.001488
  0
SEQEND
 8
0
  0
POLYLINE
  8
0
 62
     5
 66
     1
 10
0
 20
0
 30
0.0
 70
     1
 40
0.107136
 41
0.107136
  0
VERTEX
  8
0
 10
0.309571
 20
4.38092
 30
0.0
 40
0.001488
 41
0.001488
  0
VERTEX
  8
0
 10
0.304199
 20
4.38032
 30
0.0
 40
0.001488
 41
0.001488
  0
VERTEX
  8
0
 10
0.298882
 20
4.37924
 30
0.0
 40
0.001488
 41
0.001488
  0
VERTEX
  8
0
 10
0.293674
 20
4.37776
 30
0.0
 40
0.001488
 41
0.001488
  0
VERTEX
  8
0
 10
0.288629
 20
4.37587
 30
0.0
 40
0.001488
 41
0.001488
  0
VERTEX
  8
0
 10
0.283692
 20
4.37364
 30
0.0
 40
0.001488
 41
0.001488
  0
VERTEX
  8
0
 10
0.278971
 20
4.37099
 30
0.0
 40
0.001488
 41
0.001488
  0
VERTEX
  8
0
 10
0.274468
 20
4.368
 30
0.0
 40
0.001488
 41
0.001488
  0
VERTEX
  8
0
 10
0.270236
 20
4.36464
 30
0.0
 40
0.001488
 41
0.001488
  0
VERTEX
  8
0
 10
0.266276
 20
4.36094
 30
0.0
 40
0.001488
 41
0.001488
  0
VERTEX
  8
0
 10
0.262587
 20
4.35699
 30
0.0
 40
0.001488
 41
0.001488
  0
VERTEX
  8
0
 10
0.259278
 20
4.35275
 30
0.0
 40
0.001488
 41
0.001488
  0
VERTEX
  8
0
 10
0.256239
 20
4.34825
 30
0.0
 40
0.001488
 41
0.001488
  0
VERTEX
  8
0
 10
0.253581
 20
4.34353
 30
0.0
 40
0.001488
 41
0.001488
  0
VERTEX
  8
0
 10
0.251357
 20
4.3386
 30
0.0
 40
0.001488
 41
0.001488
  0
VERTEX
  8
0
 10
0.249457
 20
4.33356
 30
0.0
 40
0.001488
 41
0.001488
  0
VERTEX
  8
0
 10
0.247993
 20
4.32835
 30
0.0
 40
0.001488
 41
0.001488
  0
VERTEX
  8
0
 10
0.246907
 20
4.32303
 30
0.0
 40
0.001488
 41
0.001488
  0
VERTEX
  8
0
 10
0.246311
 20
4.31765
 30
0.0
 40
0.001488
 41
0.001488
  0
VERTEX
  8
0
 10
0.246039
 20
4.31222
 30
0.0
 40
0.001488
 41
0.001488
  0
VERTEX
  8
0
 10
0.246311
 20
4.30686
 30
0.0
 40
0.001488
 41
0.001488
  0
VERTEX
  8
0
 10
0.246907
 20
4.30149
 30
0.0
 40
0.001488
 41
0.001488
  0
VERTEX
  8
0
 10
0.247993
 20
4.29617
 30
0.0
 40
0.001488
 41
0.001488
  0
VERTEX
  8
0
 10
0.249457
 20
4.29096
 30
0.0
 40
0.001488
 41
0.001488
  0
VERTEX
  8
0
 10
0.251357
 20
4.28586
 30
0.0
 40
0.001488
 41
0.001488
  0
VERTEX
  8
0
 10
0.253581
 20
4.28097
 30
0.0
 40
0.001488
 41
0.001488
  0
VERTEX
  8
0
 10
0.256239
 20
4.27626
 30
0.0
 40
0.001488
 41
0.001488
  0
VERTEX
  8
0
 10
0.259278
 20
4.27175
 30
0.0
 40
0.001488
 41
0.001488
  0
VERTEX
  8
0
 10
0.262587
 20
4.26753
 30
0.0
 40
0.001488
 41
0.001488
  0
VERTEX
  8
0
 10
0.266276
 20
4.26351
 30
0.0
 40
0.001488
 41
0.001488
  0
VERTEX
  8
0
 10
0.270236
 20
4.25988
 30
0.0
 40
0.001488
 41
0.001488
  0
VERTEX
  8
0
 10
0.274468
 20
4.25651
 30
0.0
 40
0.001488
 41
0.001488
  0
VERTEX
  8
0
 10
0.278971
 20
4.25347
 30
0.0
 40
0.001488
 41
0.001488
  0
VERTEX
  8
0
 10
0.283692
 20
4.25087
 30
0.0
 40
0.001488
 41
0.001488
  0
VERTEX
  8
0
 10
0.288629
 20
4.24858
 30
0.0
 40
0.001488
 41
0.001488
  0
VERTEX
  8
0
 10
0.293674
 20
4.24669
 30
0.0
 40
0.001488
 41
0.001488
  0
VERTEX
  8
0
 10
0.298882
 20
4.24528
 30
0.0
 40
0.001488
 41
0.001488
  0
VERTEX
  8
0
 10
0.304199
 20
4.24419
 30
0.0
 40
0.001488
 41
0.001488
  0
VERTEX
  8
0
 10
0.309571
 20
4.24354
 30
0.0
 40
0.001488
 41
0.001488
  0
VERTEX
  8
0
 10
0.314996
 20
4.24333
 30
0.0
 40
0.001488
 41
0.001488
  0
VERTEX
  8
0
 10
0.320367
 20
4.24354
 30
0.0
 40
0.001488
 41
0.001488
  0
VERTEX
  8
0
 10
0.325738
 20
4.24419
 30
0.0
 40
0.001488
 41
0.001488
  0
VERTEX
  8
0
 10
0.331054
 20
4.24528
 30
0.0
 40
0.001488
 41
0.001488
  0
VERTEX
  8
0
 10
0.336262
 20
4.24669
 30
0.0
 40
0.001488
 41
0.001488
  0
VERTEX
  8
0
 10
0.341363
 20
4.24858
 30
0.0
 40
0.001488
 41
0.001488
  0
VERTEX
  8
0
 10
0.346246
 20
4.25087
 30
0.0
 40
0.001488
 41
0.001488
  0
VERTEX
  8
0
 10
0.350965
 20
4.25347
 30
0.0
 40
0.001488
 41
0.001488
  0
VERTEX
  8
0
 10
0.355469
 20
4.25651
 30
0.0
 40
0.001488
 41
0.001488
  0
VERTEX
  8
0
 10
0.3597
 20
4.25988
 30
0.0
 40
0.001488
 41
0.001488
  0
VERTEX
  8
0
 10
0.363715
 20
4.26351
 30
0.0
 40
0.001488
 41
0.001488
  0
VERTEX
  8
0
 10
0.36735
 20
4.26753
 30
0.0
 40
0.001488
 41
0.001488
  0
VERTEX
  8
0
 10
0.370714
 20
4.27175
 30
0.0
 40
0.001488
 41
0.001488
  0
VERTEX
  8
0
 10
0.373753
 20
4.27626
 30
0.0
 40
0.001488
 41
0.001488
  0
VERTEX
  8
0
 10
0.376357
 20
4.28097
 30
0.0
 40
0.001488
 41
0.001488
  0
VERTEX
  8
0
 10
0.378635
 20
4.28586
 30
0.0
 40
0.001488
 41
0.001488
  0
VERTEX
  8
0
 10
0.380533
 20
4.29096
 30
0.0
 40
0.001488
 41
0.001488
  0
VERTEX
  8
0
 10
0.381944
 20
4.29617
 30
0.0
 40
0.001488
 41
0.001488
  0
VERTEX
  8
0
 10
0.383029
 20
4.30149
 30
0.0
 40
0.001488
 41
0.001488
  0
VERTEX
  8
0
 10
0.383681
 20
4.30686
 30
0.0
 40
0.001488
 41
0.001488
  0
VERTEX
  8
0
 10
0.383897
 20
4.31222
 30
0.0
 40
0.001488
 41
0.001488
  0
VERTEX
  8
0
 10
0.383681
 20
4.31765
 30
0.0
 40
0.001488
 41
0.001488
  0
VERTEX
  8
0
 10
0.383029
 20
4.32303
 30
0.0
 40
0.001488
 41
0.001488
  0
VERTEX
  8
0
 10
0.381944
 20
4.32835
 30
0.0
 40
0.001488
 41
0.001488
  0
VERTEX
  8
0
 10
0.380533
 20
4.33356
 30
0.0
 40
0.001488
 41
0.001488
  0
VERTEX
  8
0
 10
0.378635
 20
4.3386
 30
0.0
 40
0.001488
 41
0.001488
  0
VERTEX
  8
0
 10
0.376357
 20
4.34353
 30
0.0
 40
0.001488
 41
0.001488
  0
VERTEX
  8
0
 10
0.373753
 20
4.34825
 30
0.0
 40
0.001488
 41
0.001488
  0
VERTEX
  8
0
 10
0.370714
 20
4.35275
 30
0.0
 40
0.001488
 41
0.001488
  0
VERTEX
  8
0
 10
0.36735
 20
4.35699
 30
0.0
 40
0.001488
 41
0.001488
  0
VERTEX
  8
0
 10
0.363715
 20
4.36094
 30
0.0
 40
0.001488
 41
0.001488
  0
VERTEX
  8
0
 10
0.3597
 20
4.36464
 30
0.0
 40
0.001488
 41
0.001488
  0
VERTEX
  8
0
 10
0.355469
 20
4.368
 30
0.0
 40
0.001488
 41
0.001488
  0
VERTEX
  8
0
 10
0.350965
 20
4.37099
 30
0.0
 40
0.001488
 41
0.001488
  0
VERTEX
  8
0
 10
0.346246
 20
4.37364
 30
0.0
 40
0.001488
 41
0.001488
  0
VERTEX
  8
0
 10
0.341363
 20
4.37587
 30
0.0
 40
0.001488
 41
0.001488
  0
VERTEX
  8
0
 10
0.336262
 20
4.37776
 30
0.0
 40
0.001488
 41
0.001488
  0
VERTEX
  8
0
 10
0.331054
 20
4.37924
 30
0.0
 40
0.001488
 41
0.001488
  0
VERTEX
  8
0
 10
0.325738
 20
4.38032
 30
0.0
 40
0.001488
 41
0.001488
  0
VERTEX
  8
0
 10
0.320367
 20
4.38092
 30
0.0
 40
0.001488
 41
0.001488
  0
VERTEX
  8
0
 10
0.314996
 20
4.38113
 30
0.0
 40
0.001488
 41
0.001488
  0
VERTEX
  8
0
 10
0.309571
 20
4.38092
 30
0.0
 40
0.001488
 41
0.001488
  0
SEQEND
 8
0
  0
POLYLINE
  8
0
 62
     5
 66
     1
 10
0
 20
0
 30
0.0
 70
     1
 40
0.107136
 41
0.107136
  0
VERTEX
  8
0
 10
5.05171
 20
4.38092
 30
0.0
 40
0.001488
 41
0.001488
  0
VERTEX
  8
0
 10
5.04633
 20
4.38032
 30
0.0
 40
0.001488
 41
0.001488
  0
VERTEX
  8
0
 10
5.04107
 20
4.37924
 30
0.0
 40
0.001488
 41
0.001488
  0
VERTEX
  8
0
 10
5.03586
 20
4.37776
 30
0.0
 40
0.001488
 41
0.001488
  0
VERTEX
  8
0
 10
5.03076
 20
4.37587
 30
0.0
 40
0.001488
 41
0.001488
  0
VERTEX
  8
0
 10
5.02588
 20
4.37364
 30
0.0
 40
0.001488
 41
0.001488
  0
VERTEX
  8
0
 10
5.02115
 20
4.37099
 30
0.0
 40
0.001488
 41
0.001488
  0
VERTEX
  8
0
 10
5.01665
 20
4.368
 30
0.0
 40
0.001488
 41
0.001488
  0
VERTEX
  8
0
 10
5.01243
 20
4.36464
 30
0.0
 40
0.001488
 41
0.001488
  0
VERTEX
  8
0
 10
5.0084
 20
4.36094
 30
0.0
 40
0.001488
 41
0.001488
  0
VERTEX
  8
0
 10
5.00478
 20
4.35699
 30
0.0
 40
0.001488
 41
0.001488
  0
VERTEX
  8
0
 10
5.00142
 20
4.35275
 30
0.0
 40
0.001488
 41
0.001488
  0
VERTEX
  8
0
 10
4.99837
 20
4.34825
 30
0.0
 40
0.001488
 41
0.001488
  0
VERTEX
  8
0
 10
4.99576
 20
4.34353
 30
0.0
 40
0.001488
 41
0.001488
  0
VERTEX
  8
0
 10
4.99349
 20
4.3386
 30
0.0
 40
0.001488
 41
0.001488
  0
VERTEX
  8
0
 10
4.9916
 20
4.33356
 30
0.0
 40
0.001488
 41
0.001488
  0
VERTEX
  8
0
 10
4.99018
 20
4.32835
 30
0.0
 40
0.001488
 41
0.001488
  0
VERTEX
  8
0
 10
4.9891
 20
4.32303
 30
0.0
 40
0.001488
 41
0.001488
  0
VERTEX
  8
0
 10
4.98844
 20
4.31765
 30
0.0
 40
0.001488
 41
0.001488
  0
VERTEX
  8
0
 10
4.98822
 20
4.31222
 30
0.0
 40
0.001488
 41
0.001488
  0
VERTEX
  8
0
 10
4.98844
 20
4.30686
 30
0.0
 40
0.001488
 41
0.001488
  0
VERTEX
  8
0
 10
4.9891
 20
4.30149
 30
0.0
 40
0.001488
 41
0.001488
  0
VERTEX
  8
0
 10
4.99018
 20
4.29617
 30
0.0
 40
0.001488
 41
0.001488
  0
VERTEX
  8
0
 10
4.9916
 20
4.29096
 30
0.0
 40
0.001488
 41
0.001488
  0
VERTEX
  8
0
 10
4.99349
 20
4.28586
 30
0.0
 40
0.001488
 41
0.001488
  0
VERTEX
  8
0
 10
4.99576
 20
4.28097
 30
0.0
 40
0.001488
 41
0.001488
  0
VERTEX
  8
0
 10
4.99837
 20
4.27626
 30
0.0
 40
0.001488
 41
0.001488
  0
VERTEX
  8
0
 10
5.00142
 20
4.27175
 30
0.0
 40
0.001488
 41
0.001488
  0
VERTEX
  8
0
 10
5.00478
 20
4.26753
 30
0.0
 40
0.001488
 41
0.001488
  0
VERTEX
  8
0
 10
5.0084
 20
4.26351
 30
0.0
 40
0.001488
 41
0.001488
  0
VERTEX
  8
0
 10
5.01243
 20
4.25988
 30
0.0
 40
0.001488
 41
0.001488
  0
VERTEX
  8
0
 10
5.01665
 20
4.25651
 30
0.0
 40
0.001488
 41
0.001488
  0
VERTEX
  8
0
 10
5.02115
 20
4.25347
 30
0.0
 40
0.001488
 41
0.001488
  0
VERTEX
  8
0
 10
5.02588
 20
4.25087
 30
0.0
 40
0.001488
 41
0.001488
  0
VERTEX
  8
0
 10
5.03076
 20
4.24858
 30
0.0
 40
0.001488
 41
0.001488
  0
VERTEX
  8
0
 10
5.03586
 20
4.24669
 30
0.0
 40
0.001488
 41
0.001488
  0
VERTEX
  8
0
 10
5.04107
 20
4.24528
 30
0.0
 40
0.001488
 41
0.001488
  0
VERTEX
  8
0
 10
5.04633
 20
4.24419
 30
0.0
 40
0.001488
 41
0.001488
  0
VERTEX
  8
0
 10
5.05171
 20
4.24354
 30
0.0
 40
0.001488
 41
0.001488
  0
VERTEX
  8
0
 10
5.05707
 20
4.24333
 30
0.0
 40
0.001488
 41
0.001488
  0
VERTEX
  8
0
 10
5.06256
 20
4.24354
 30
0.0
 40
0.001488
 41
0.001488
  0
VERTEX
  8
0
 10
5.06787
 20
4.24419
 30
0.0
 40
0.001488
 41
0.001488
  0
VERTEX
  8
0
 10
5.07324
 20
4.24528
 30
0.0
 40
0.001488
 41
0.001488
  0
VERTEX
  8
0
 10
5.07844
 20
4.24669
 30
0.0
 40
0.001488
 41
0.001488
  0
VERTEX
  8
0
 10
5.0835
 20
4.24858
 30
0.0
 40
0.001488
 41
0.001488
  0
VERTEX
  8
0
 10
5.08843
 20
4.25087
 30
0.0
 40
0.001488
 41
0.001488
  0
VERTEX
  8
0
 10
5.09315
 20
4.25347
 30
0.0
 40
0.001488
 41
0.001488
  0
VERTEX
  8
0
 10
5.09765
 20
4.25651
 30
0.0
 40
0.001488
 41
0.001488
  0
VERTEX
  8
0
 10
5.10183
 20
4.25988
 30
0.0
 40
0.001488
 41
0.001488
  0
VERTEX
  8
0
 10
5.10585
 20
4.26351
 30
0.0
 40
0.001488
 41
0.001488
  0
VERTEX
  8
0
 10
5.10954
 20
4.26753
 30
0.0
 40
0.001488
 41
0.001488
  0
VERTEX
  8
0
 10
5.11285
 20
4.27175
 30
0.0
 40
0.001488
 41
0.001488
  0
VERTEX
  8
0
 10
5.11589
 20
4.27626
 30
0.0
 40
0.001488
 41
0.001488
  0
VERTEX
  8
0
 10
5.11849
 20
4.28097
 30
0.0
 40
0.001488
 41
0.001488
  0
VERTEX
  8
0
 10
5.12076
 20
4.28586
 30
0.0
 40
0.001488
 41
0.001488
  0
VERTEX
  8
0
 10
5.12267
 20
4.29096
 30
0.0
 40
0.001488
 41
0.001488
  0
VERTEX
  8
0
 10
5.12408
 20
4.29617
 30
0.0
 40
0.001488
 41
0.001488
  0
VERTEX
  8
0
 10
5.12522
 20
4.30149
 30
0.0
 40
0.001488
 41
0.001488
  0
VERTEX
  8
0
 10
5.12582
 20
4.30686
 30
0.0
 40
0.001488
 41
0.001488
  0
VERTEX
  8
0
 10
5.12608
 20
4.31222
 30
0.0
 40
0.001488
 41
0.001488
  0
VERTEX
  8
0
 10
5.12582
 20
4.31765
 30
0.0
 40
0.001488
 41
0.001488
  0
VERTEX
  8
0
 10
5.12522
 20
4.32303
 30
0.0
 40
0.001488
 41
0.001488
  0
VERTEX
  8
0
 10
5.12408
 20
4.32835
 30
0.0
 40
0.001488
 41
0.001488
  0
VERTEX
  8
0
 10
5.12267
 20
4.33356
 30
0.0
 40
0.001488
 41
0.001488
  0
VERTEX
  8
0
 10
5.12076
 20
4.3386
 30
0.0
 40
0.001488
 41
0.001488
  0
VERTEX
  8
0
 10
5.11849
 20
4.34353
 30
0.0
 40
0.001488
 41
0.001488
  0
VERTEX
  8
0
 10
5.11589
 20
4.34825
 30
0.0
 40
0.001488
 41
0.001488
  0
VERTEX
  8
0
 10
5.11285
 20
4.35275
 30
0.0
 40
0.001488
 41
0.001488
  0
VERTEX
  8
0
 10
5.10954
 20
4.35699
 30
0.0
 40
0.001488
 41
0.001488
  0
VERTEX
  8
0
 10
5.10585
 20
4.36094
 30
0.0
 40
0.001488
 41
0.001488
  0
VERTEX
  8
0
 10
5.10183
 20
4.36464
 30
0.0
 40
0.001488
 41
0.001488
  0
VERTEX
  8
0
 10
5.09765
 20
4.368
 30
0.0
 40
0.001488
 41
0.001488
  0
VERTEX
  8
0
 10
5.09315
 20
4.37099
 30
0.0
 40
0.001488
 41
0.001488
  0
VERTEX
  8
0
 10
5.08843
 20
4.37364
 30
0.0
 40
0.001488
 41
0.001488
  0
VERTEX
  8
0
 10
5.0835
 20
4.37587
 30
0.0
 40
0.001488
 41
0.001488
  0
VERTEX
  8
0
 10
5.07844
 20
4.37776
 30
0.0
 40
0.001488
 41
0.001488
  0
VERTEX
  8
0
 10
5.07324
 20
4.37924
 30
0.0
 40
0.001488
 41
0.001488
  0
VERTEX
  8
0
 10
5.06787
 20
4.38032
 30
0.0
 40
0.001488
 41
0.001488
  0
VERTEX
  8
0
 10
5.06256
 20
4.38092
 30
0.0
 40
0.001488
 41
0.001488
  0
VERTEX
  8
0
 10
5.05707
 20
4.38113
 30
0.0
 40
0.001488
 41
0.001488
  0
VERTEX
  8
0
 10
5.05171
 20
4.38092
 30
0.0
 40
0.001488
 41
0.001488
  0
SEQEND
 8
0
  0
POLYLINE
  8
0
 62
     5
 66
     1
 10
0
 20
0
 30
0.0
 70
     1
 40
0.107136
 41
0.107136
  0
VERTEX
  8
0
 10
3.7761
 20
4.70578
 30
0.0
 40
0.001488
 41
0.001488
  0
VERTEX
  8
0
 10
3.77919
 20
4.7054
 30
0.0
 40
0.001488
 41
0.001488
  0
VERTEX
  8
0
 10
3.78222
 20
4.70481
 30
0.0
 40
0.001488
 41
0.001488
  0
VERTEX
  8
0
 10
3.78521
 20
4.704
 30
0.0
 40
0.001488
 41
0.001488
  0
VERTEX
  8
0
 10
3.78808
 20
4.7029
 30
0.0
 40
0.001488
 41
0.001488
  0
VERTEX
  8
0
 10
3.7909
 20
4.70167
 30
0.0
 40
0.001488
 41
0.001488
  0
VERTEX
  8
0
 10
3.79357
 20
4.70008
 30
0.0
 40
0.001488
 41
0.001488
  0
VERTEX
  8
0
 10
3.79617
 20
4.6984
 30
0.0
 40
0.001488
 41
0.001488
  0
VERTEX
  8
0
 10
3.79856
 20
4.69646
 30
0.0
 40
0.001488
 41
0.001488
  0
VERTEX
  8
0
 10
3.80089
 20
4.69439
 30
0.0
 40
0.001488
 41
0.001488
  0
VERTEX
  8
0
 10
3.80296
 20
4.69211
 30
0.0
 40
0.001488
 41
0.001488
  0
VERTEX
  8
0
 10
3.8049
 20
4.68967
 30
0.0
 40
0.001488
 41
0.001488
  0
VERTEX
  8
0
 10
3.80664
 20
4.68712
 30
0.0
 40
0.001488
 41
0.001488
  0
VERTEX
  8
0
 10
3.80811
 20
4.6844
 30
0.0
 40
0.001488
 41
0.001488
  0
VERTEX
  8
0
 10
3.8094
 20
4.68158
 30
0.0
 40
0.001488
 41
0.001488
  0
VERTEX
  8
0
 10
3.81049
 20
4.67871
 30
0.0
 40
0.001488
 41
0.001488
  0
VERTEX
  8
0
 10
3.81131
 20
4.67572
 30
0.0
 40
0.001488
 41
0.001488
  0
VERTEX
  8
0
 10
3.8119
 20
4.67269
 30
0.0
 40
0.001488
 41
0.001488
  0
VERTEX
  8
0
 10
3.81228
 20
4.66965
 30
0.0
 40
0.001488
 41
0.001488
  0
VERTEX
  8
0
 10
3.81239
 20
4.6665
 30
0.0
 40
0.001488
 41
0.001488
  0
VERTEX
  8
0
 10
3.81239
 20
4.50906
 30
0.0
 40
0.001488
 41
0.001488
  0
VERTEX
  8
0
 10
3.81228
 20
4.50603
 30
0.0
 40
0.001488
 41
0.001488
  0
VERTEX
  8
0
 10
3.8119
 20
4.50293
 30
0.0
 40
0.001488
 41
0.001488
  0
VERTEX
  8
0
 10
3.81131
 20
4.49989
 30
0.0
 40
0.001488
 41
0.001488
  0
VERTEX
  8
0
 10
3.81049
 20
4.4969
 30
0.0
 40
0.001488
 41
0.001488
  0
VERTEX
  8
0
 10
3.8094
 20
4.49403
 30
0.0
 40
0.001488
 41
0.001488
  0
VERTEX
  8
0
 10
3.80811
 20
4.49126
 30
0.0
 40
0.001488
 41
0.001488
  0
VERTEX
  8
0
 10
3.80664
 20
4.48856
 30
0.0
 40
0.001488
 41
0.001488
  0
VERTEX
  8
0
 10
3.8049
 20
4.48594
 30
0.0
 40
0.001488
 41
0.001488
  0
VERTEX
  8
0
 10
3.80296
 20
4.48351
 30
0.0
 40
0.001488
 41
0.001488
  0
VERTEX
  8
0
 10
3.80089
 20
4.48122
 30
0.0
 40
0.001488
 41
0.001488
  0
VERTEX
  8
0
 10
3.79856
 20
4.47917
 30
0.0
 40
0.001488
 41
0.001488
  0
VERTEX
  8
0
 10
3.79617
 20
4.47721
 30
0.0
 40
0.001488
 41
0.001488
  0
VERTEX
  8
0
 10
3.79357
 20
4.47553
 30
0.0
 40
0.001488
 41
0.001488
  0
VERTEX
  8
0
 10
3.7909
 20
4.47401
 30
0.0
 40
0.001488
 41
0.001488
  0
VERTEX
  8
0
 10
3.78808
 20
4.47276
 30
0.0
 40
0.001488
 41
0.001488
  0
VERTEX
  8
0
 10
3.78521
 20
4.47163
 30
0.0
 40
0.001488
 41
0.001488
  0
VERTEX
  8
0
 10
3.78222
 20
4.47081
 30
0.0
 40
0.001488
 41
0.001488
  0
VERTEX
  8
0
 10
3.77919
 20
4.47021
 30
0.0
 40
0.001488
 41
0.001488
  0
VERTEX
  8
0
 10
3.7761
 20
4.46989
 30
0.0
 40
0.001488
 41
0.001488
  0
VERTEX
  8
0
 10
3.77382
 20
4.46972
 30
0.0
 40
0.001488
 41
0.001488
  0
VERTEX
  8
0
 10
2.51243
 20
4.46972
 30
0.0
 40
0.001488
 41
0.001488
  0
VERTEX
  8
0
 10
2.5101
 20
4.46989
 30
0.0
 40
0.001488
 41
0.001488
  0
VERTEX
  8
0
 10
2.50706
 20
4.47021
 30
0.0
 40
0.001488
 41
0.001488
  0
VERTEX
  8
0
 10
2.50401
 20
4.47081
 30
0.0
 40
0.001488
 41
0.001488
  0
VERTEX
  8
0
 10
2.50103
 20
4.47163
 30
0.0
 40
0.001488
 41
0.001488
  0
VERTEX
  8
0
 10
2.4981
 20
4.47276
 30
0.0
 40
0.001488
 41
0.001488
  0
VERTEX
  8
0
 10
2.49533
 20
4.47401
 30
0.0
 40
0.001488
 41
0.001488
  0
VERTEX
  8
0
 10
2.49262
 20
4.47553
 30
0.0
 40
0.001488
 41
0.001488
  0
VERTEX
  8
0
 10
2.49001
 20
4.47721
 30
0.0
 40
0.001488
 41
0.001488
  0
VERTEX
  8
0
 10
2.48762
 20
4.47917
 30
0.0
 40
0.001488
 41
0.001488
  0
VERTEX
  8
0
 10
2.48535
 20
4.48122
 30
0.0
 40
0.001488
 41
0.001488
  0
VERTEX
  8
0
 10
2.48329
 20
4.48351
 30
0.0
 40
0.001488
 41
0.001488
  0
VERTEX
  8
0
 10
2.48133
 20
4.48594
 30
0.0
 40
0.001488
 41
0.001488
  0
VERTEX
  8
0
 10
2.4796
 20
4.48856
 30
0.0
 40
0.001488
 41
0.001488
  0
VERTEX
  8
0
 10
2.47814
 20
4.49126
 30
0.0
 40
0.001488
 41
0.001488
  0
VERTEX
  8
0
 10
2.47683
 20
4.49403
 30
0.0
 40
0.001488
 41
0.001488
  0
VERTEX
  8
0
 10
2.47575
 20
4.4969
 30
0.0
 40
0.001488
 41
0.001488
  0
VERTEX
  8
0
 10
2.47493
 20
4.49989
 30
0.0
 40
0.001488
 41
0.001488
  0
VERTEX
  8
0
 10
2.47428
 20
4.50293
 30
0.0
 40
0.001488
 41
0.001488
  0
VERTEX
  8
0
 10
2.47396
 20
4.50603
 30
0.0
 40
0.001488
 41
0.001488
  0
VERTEX
  8
0
 10
2.47379
 20
4.50911
 30
0.0
 40
0.001488
 41
0.001488
  0
VERTEX
  8
0
 10
2.47379
 20
4.66656
 30
0.0
 40
0.001488
 41
0.001488
  0
VERTEX
  8
0
 10
2.47396
 20
4.66965
 30
0.0
 40
0.001488
 41
0.001488
  0
VERTEX
  8
0
 10
2.47428
 20
4.67269
 30
0.0
 40
0.001488
 41
0.001488
  0
VERTEX
  8
0
 10
2.47493
 20
4.67572
 30
0.0
 40
0.001488
 41
0.001488
  0
VERTEX
  8
0
 10
2.47575
 20
4.67871
 30
0.0
 40
0.001488
 41
0.001488
  0
VERTEX
  8
0
 10
2.47683
 20
4.68158
 30
0.0
 40
0.001488
 41
0.001488
  0
VERTEX
  8
0
 10
2.47814
 20
4.6844
 30
0.0
 40
0.001488
 41
0.001488
  0
VERTEX
  8
0
 10
2.4796
 20
4.68712
 30
0.0
 40
0.001488
 41
0.001488
  0
VERTEX
  8
0
 10
2.48133
 20
4.68967
 30
0.0
 40
0.001488
 41
0.001488
  0
VERTEX
  8
0
 10
2.48329
 20
4.69211
 30
0.0
 40
0.001488
 41
0.001488
  0
VERTEX
  8
0
 10
2.48535
 20
4.69439
 30
0.0
 40
0.001488
 41
0.001488
  0
VERTEX
  8
0
 10
2.48762
 20
4.69646
 30
0.0
 40
0.001488
 41
0.001488
  0
VERTEX
  8
0
 10
2.49001
 20
4.6984
 30
0.0
 40
0.001488
 41
0.001488
  0
VERTEX
  8
0
 10
2.49262
 20
4.70008
 30
0.0
 40
0.001488
 41
0.001488
  0
VERTEX
  8
0
 10
2.49533
 20
4.70167
 30
0.0
 40
0.001488
 41
0.001488
  0
VERTEX
  8
0
 10
2.4981
 20
4.7029
 30
0.0
 40
0.001488
 41
0.001488
  0
VERTEX
  8
0
 10
2.50103
 20
4.704
 30
0.0
 40
0.001488
 41
0.001488
  0
VERTEX
  8
0
 10
2.50401
 20
4.70481
 30
0.0
 40
0.001488
 41
0.001488
  0
VERTEX
  8
0
 10
2.50706
 20
4.7054
 30
0.0
 40
0.001488
 41
0.001488
  0
VERTEX
  8
0
 10
2.5101
 20
4.70578
 30
0.0
 40
0.001488
 41
0.001488
  0
VERTEX
  8
0
 10
2.51318
 20
4.70594
 30
0.0
 40
0.001488
 41
0.001488
  0
VERTEX
  8
0
 10
3.77306
 20
4.70594
 30
0.0
 40
0.001488
 41
0.001488
  0
VERTEX
  8
0
 10
3.7761
 20
4.70578
 30
0.0
 40
0.001488
 41
0.001488
  0
SEQEND
 8
0
  0
POLYLINE
  8
0
 62
     5
 66
     1
 10
0
 20
0
 30
0.0
 70
     1
 40
0.107136
 41
0.107136
  0
VERTEX
  8
0
 10
2.62592
 20
4.65647
 30
0.0
 40
0.001488
 41
0.001488
  0
VERTEX
  8
0
 10
2.6205
 20
4.65587
 30
0.0
 40
0.001488
 41
0.001488
  0
VERTEX
  8
0
 10
2.61518
 20
4.65479
 30
0.0
 40
0.001488
 41
0.001488
  0
VERTEX
  8
0
 10
2.61003
 20
4.65332
 30
0.0
 40
0.001488
 41
0.001488
  0
VERTEX
  8
0
 10
2.60493
 20
4.65142
 30
0.0
 40
0.001488
 41
0.001488
  0
VERTEX
  8
0
 10
2.60004
 20
4.64919
 30
0.0
 40
0.001488
 41
0.001488
  0
VERTEX
  8
0
 10
2.59532
 20
4.64654
 30
0.0
 40
0.001488
 41
0.001488
  0
VERTEX
  8
0
 10
2.59076
 20
4.6435
 30
0.0
 40
0.001488
 41
0.001488
  0
VERTEX
  8
0
 10
2.58653
 20
4.64019
 30
0.0
 40
0.001488
 41
0.001488
  0
VERTEX
  8
0
 10
2.58257
 20
4.6365
 30
0.0
 40
0.001488
 41
0.001488
  0
VERTEX
  8
0
 10
2.57889
 20
4.63254
 30
0.0
 40
0.001488
 41
0.001488
  0
VERTEX
  8
0
 10
2.57557
 20
4.62831
 30
0.0
 40
0.001488
 41
0.001488
  0
VERTEX
  8
0
 10
2.57254
 20
4.62386
 30
0.0
 40
0.001488
 41
0.001488
  0
VERTEX
  8
0
 10
2.56993
 20
4.61914
 30
0.0
 40
0.001488
 41
0.001488
  0
VERTEX
  8
0
 10
2.56765
 20
4.61421
 30
0.0
 40
0.001488
 41
0.001488
  0
VERTEX
  8
0
 10
2.56581
 20
4.6091
 30
0.0
 40
0.001488
 41
0.001488
  0
VERTEX
  8
0
 10
2.56429
 20
4.60389
 30
0.0
 40
0.001488
 41
0.001488
  0
VERTEX
  8
0
 10
2.56321
 20
4.59858
 30
0.0
 40
0.001488
 41
0.001488
  0
VERTEX
  8
0
 10
2.56261
 20
4.59326
 30
0.0
 40
0.001488
 41
0.001488
  0
VERTEX
  8
0
 10
2.56239
 20
4.58783
 30
0.0
 40
0.001488
 41
0.001488
  0
VERTEX
  8
0
 10
2.56261
 20
4.58242
 30
0.0
 40
0.001488
 41
0.001488
  0
VERTEX
  8
0
 10
2.56321
 20
4.5771
 30
0.0
 40
0.001488
 41
0.001488
  0
VERTEX
  8
0
 10
2.56429
 20
4.57178
 30
0.0
 40
0.001488
 41
0.001488
  0
VERTEX
  8
0
 10
2.56581
 20
4.56657
 30
0.0
 40
0.001488
 41
0.001488
  0
VERTEX
  8
0
 10
2.56765
 20
4.56147
 30
0.0
 40
0.001488
 41
0.001488
  0
VERTEX
  8
0
 10
2.56993
 20
4.55653
 30
0.0
 40
0.001488
 41
0.001488
  0
VERTEX
  8
0
 10
2.57254
 20
4.55181
 30
0.0
 40
0.001488
 41
0.001488
  0
VERTEX
  8
0
 10
2.57557
 20
4.54736
 30
0.0
 40
0.001488
 41
0.001488
  0
VERTEX
  8
0
 10
2.57889
 20
4.54308
 30
0.0
 40
0.001488
 41
0.001488
  0
VERTEX
  8
0
 10
2.58257
 20
4.53911
 30
0.0
 40
0.001488
 41
0.001488
  0
VERTEX
  8
0
 10
2.58653
 20
4.53549
 30
0.0
 40
0.001488
 41
0.001488
  0
VERTEX
  8
0
 10
2.59076
 20
4.53212
 30
0.0
 40
0.001488
 41
0.001488
  0
VERTEX
  8
0
 10
2.59532
 20
4.52908
 30
0.0
 40
0.001488
 41
0.001488
  0
VERTEX
  8
0
 10
2.60004
 20
4.52642
 30
0.0
 40
0.001488
 41
0.001488
  0
VERTEX
  8
0
 10
2.60493
 20
4.52419
 30
0.0
 40
0.001488
 41
0.001488
  0
VERTEX
  8
0
 10
2.61003
 20
4.52229
 30
0.0
 40
0.001488
 41
0.001488
  0
VERTEX
  8
0
 10
2.61518
 20
4.52083
 30
0.0
 40
0.001488
 41
0.001488
  0
VERTEX
  8
0
 10
2.6205
 20
4.51981
 30
0.0
 40
0.001488
 41
0.001488
  0
VERTEX
  8
0
 10
2.62592
 20
4.51915
 30
0.0
 40
0.001488
 41
0.001488
  0
VERTEX
  8
0
 10
2.63129
 20
4.51893
 30
0.0
 40
0.001488
 41
0.001488
  0
VERTEX
  8
0
 10
2.63672
 20
4.51915
 30
0.0
 40
0.001488
 41
0.001488
  0
VERTEX
  8
0
 10
2.64208
 20
4.51981
 30
0.0
 40
0.001488
 41
0.001488
  0
VERTEX
  8
0
 10
2.6474
 20
4.52083
 30
0.0
 40
0.001488
 41
0.001488
  0
VERTEX
  8
0
 10
2.65261
 20
4.52229
 30
0.0
 40
0.001488
 41
0.001488
  0
VERTEX
  8
0
 10
2.65767
 20
4.52419
 30
0.0
 40
0.001488
 41
0.001488
  0
VERTEX
  8
0
 10
2.66254
 20
4.52642
 30
0.0
 40
0.001488
 41
0.001488
  0
VERTEX
  8
0
 10
2.66726
 20
4.52908
 30
0.0
 40
0.001488
 41
0.001488
  0
VERTEX
  8
0
 10
2.67182
 20
4.53212
 30
0.0
 40
0.001488
 41
0.001488
  0
VERTEX
  8
0
 10
2.67606
 20
4.53549
 30
0.0
 40
0.001488
 41
0.001488
  0
VERTEX
  8
0
 10
2.68001
 20
4.53911
 30
0.0
 40
0.001488
 41
0.001488
  0
VERTEX
  8
0
 10
2.68371
 20
4.54308
 30
0.0
 40
0.001488
 41
0.001488
  0
VERTEX
  8
0
 10
2.68707
 20
4.54736
 30
0.0
 40
0.001488
 41
0.001488
  0
VERTEX
  8
0
 10
2.69006
 20
4.55181
 30
0.0
 40
0.001488
 41
0.001488
  0
VERTEX
  8
0
 10
2.69265
 20
4.55653
 30
0.0
 40
0.001488
 41
0.001488
  0
VERTEX
  8
0
 10
2.69499
 20
4.56147
 30
0.0
 40
0.001488
 41
0.001488
  0
VERTEX
  8
0
 10
2.69683
 20
4.56657
 30
0.0
 40
0.001488
 41
0.001488
  0
VERTEX
  8
0
 10
2.69829
 20
4.57178
 30
0.0
 40
0.001488
 41
0.001488
  0
VERTEX
  8
0
 10
2.69933
 20
4.5771
 30
0.0
 40
0.001488
 41
0.001488
  0
VERTEX
  8
0
 10
2.69997
 20
4.58242
 30
0.0
 40
0.001488
 41
0.001488
  0
VERTEX
  8
0
 10
2.70019
 20
4.58783
 30
0.0
 40
0.001488
 41
0.001488
  0
VERTEX
  8
0
 10
2.69997
 20
4.59326
 30
0.0
 40
0.001488
 41
0.001488
  0
VERTEX
  8
0
 10
2.69933
 20
4.59858
 30
0.0
 40
0.001488
 41
0.001488
  0
VERTEX
  8
0
 10
2.69829
 20
4.60389
 30
0.0
 40
0.001488
 41
0.001488
  0
VERTEX
  8
0
 10
2.69683
 20
4.6091
 30
0.0
 40
0.001488
 41
0.001488
  0
VERTEX
  8
0
 10
2.69499
 20
4.61421
 30
0.0
 40
0.001488
 41
0.001488
  0
VERTEX
  8
0
 10
2.69265
 20
4.61914
 30
0.0
 40
0.001488
 41
0.001488
  0
VERTEX
  8
0
 10
2.69006
 20
4.62386
 30
0.0
 40
0.001488
 41
0.001488
  0
VERTEX
  8
0
 10
2.68707
 20
4.62831
 30
0.0
 40
0.001488
 41
0.001488
  0
VERTEX
  8
0
 10
2.68371
 20
4.63254
 30
0.0
 40
0.001488
 41
0.001488
  0
VERTEX
  8
0
 10
2.68001
 20
4.6365
 30
0.0
 40
0.001488
 41
0.001488
  0
VERTEX
  8
0
 10
2.67606
 20
4.64019
 30
0.0
 40
0.001488
 41
0.001488
  0
VERTEX
  8
0
 10
2.67182
 20
4.6435
 30
0.0
 40
0.001488
 41
0.001488
  0
VERTEX
  8
0
 10
2.66726
 20
4.64654
 30
0.0
 40
0.001488
 41
0.001488
  0
VERTEX
  8
0
 10
2.66254
 20
4.64919
 30
0.0
 40
0.001488
 41
0.001488
  0
VERTEX
  8
0
 10
2.65767
 20
4.65142
 30
0.0
 40
0.001488
 41
0.001488
  0
VERTEX
  8
0
 10
2.65261
 20
4.65332
 30
0.0
 40
0.001488
 41
0.001488
  0
VERTEX
  8
0
 10
2.6474
 20
4.65479
 30
0.0
 40
0.001488
 41
0.001488
  0
VERTEX
  8
0
 10
2.64208
 20
4.65587
 30
0.0
 40
0.001488
 41
0.001488
  0
VERTEX
  8
0
 10
2.63672
 20
4.65647
 30
0.0
 40
0.001488
 41
0.001488
  0
VERTEX
  8
0
 10
2.63129
 20
4.65674
 30
0.0
 40
0.001488
 41
0.001488
  0
VERTEX
  8
0
 10
2.62592
 20
4.65647
 30
0.0
 40
0.001488
 41
0.001488
  0
SEQEND
 8
0
  0
POLYLINE
  8
0
 62
     5
 66
     1
 10
0
 20
0
 30
0.0
 70
     1
 40
0.107136
 41
0.107136
  0
VERTEX
  8
0
 10
3.64953
 20
4.65647
 30
0.0
 40
0.001488
 41
0.001488
  0
VERTEX
  8
0
 10
3.64415
 20
4.65587
 30
0.0
 40
0.001488
 41
0.001488
  0
VERTEX
  8
0
 10
3.63883
 20
4.65479
 30
0.0
 40
0.001488
 41
0.001488
  0
VERTEX
  8
0
 10
3.63363
 20
4.65332
 30
0.0
 40
0.001488
 41
0.001488
  0
VERTEX
  8
0
 10
3.62853
 20
4.65142
 30
0.0
 40
0.001488
 41
0.001488
  0
VERTEX
  8
0
 10
3.62364
 20
4.64919
 30
0.0
 40
0.001488
 41
0.001488
  0
VERTEX
  8
0
 10
3.61893
 20
4.64654
 30
0.0
 40
0.001488
 41
0.001488
  0
VERTEX
  8
0
 10
3.61442
 20
4.6435
 30
0.0
 40
0.001488
 41
0.001488
  0
VERTEX
  8
0
 10
3.61014
 20
4.64019
 30
0.0
 40
0.001488
 41
0.001488
  0
VERTEX
  8
0
 10
3.60622
 20
4.6365
 30
0.0
 40
0.001488
 41
0.001488
  0
VERTEX
  8
0
 10
3.60254
 20
4.63254
 30
0.0
 40
0.001488
 41
0.001488
  0
VERTEX
  8
0
 10
3.59918
 20
4.62831
 30
0.0
 40
0.001488
 41
0.001488
  0
VERTEX
  8
0
 10
3.59619
 20
4.62386
 30
0.0
 40
0.001488
 41
0.001488
  0
VERTEX
  8
0
 10
3.59353
 20
4.61914
 30
0.0
 40
0.001488
 41
0.001488
  0
VERTEX
  8
0
 10
3.59125
 20
4.61421
 30
0.0
 40
0.001488
 41
0.001488
  0
VERTEX
  8
0
 10
3.58942
 20
4.6091
 30
0.0
 40
0.001488
 41
0.001488
  0
VERTEX
  8
0
 10
3.58789
 20
4.60389
 30
0.0
 40
0.001488
 41
0.001488
  0
VERTEX
  8
0
 10
3.58692
 20
4.59858
 30
0.0
 40
0.001488
 41
0.001488
  0
VERTEX
  8
0
 10
3.58621
 20
4.59326
 30
0.0
 40
0.001488
 41
0.001488
  0
VERTEX
  8
0
 10
3.58604
 20
4.58783
 30
0.0
 40
0.001488
 41
0.001488
  0
VERTEX
  8
0
 10
3.58621
 20
4.58242
 30
0.0
 40
0.001488
 41
0.001488
  0
VERTEX
  8
0
 10
3.58692
 20
4.5771
 30
0.0
 40
0.001488
 41
0.001488
  0
VERTEX
  8
0
 10
3.58789
 20
4.57178
 30
0.0
 40
0.001488
 41
0.001488
  0
VERTEX
  8
0
 10
3.58942
 20
4.56657
 30
0.0
 40
0.001488
 41
0.001488
  0
VERTEX
  8
0
 10
3.59125
 20
4.56147
 30
0.0
 40
0.001488
 41
0.001488
  0
VERTEX
  8
0
 10
3.59353
 20
4.55653
 30
0.0
 40
0.001488
 41
0.001488
  0
VERTEX
  8
0
 10
3.59619
 20
4.55181
 30
0.0
 40
0.001488
 41
0.001488
  0
VERTEX
  8
0
 10
3.59918
 20
4.54736
 30
0.0
 40
0.001488
 41
0.001488
  0
VERTEX
  8
0
 10
3.60254
 20
4.54308
 30
0.0
 40
0.001488
 41
0.001488
  0
VERTEX
  8
0
 10
3.60622
 20
4.53911
 30
0.0
 40
0.001488
 41
0.001488
  0
VERTEX
  8
0
 10
3.61014
 20
4.53549
 30
0.0
 40
0.001488
 41
0.001488
  0
VERTEX
  8
0
 10
3.61442
 20
4.53212
 30
0.0
 40
0.001488
 41
0.001488
  0
VERTEX
  8
0
 10
3.61893
 20
4.52908
 30
0.0
 40
0.001488
 41
0.001488
  0
VERTEX
  8
0
 10
3.62364
 20
4.52642
 30
0.0
 40
0.001488
 41
0.001488
  0
VERTEX
  8
0
 10
3.62853
 20
4.52419
 30
0.0
 40
0.001488
 41
0.001488
  0
VERTEX
  8
0
 10
3.63363
 20
4.52229
 30
0.0
 40
0.001488
 41
0.001488
  0
VERTEX
  8
0
 10
3.63883
 20
4.52083
 30
0.0
 40
0.001488
 41
0.001488
  0
VERTEX
  8
0
 10
3.64415
 20
4.51981
 30
0.0
 40
0.001488
 41
0.001488
  0
VERTEX
  8
0
 10
3.64953
 20
4.51915
 30
0.0
 40
0.001488
 41
0.001488
  0
VERTEX
  8
0
 10
3.65494
 20
4.51893
 30
0.0
 40
0.001488
 41
0.001488
  0
VERTEX
  8
0
 10
3.66032
 20
4.51915
 30
0.0
 40
0.001488
 41
0.001488
  0
VERTEX
  8
0
 10
3.66569
 20
4.51981
 30
0.0
 40
0.001488
 41
0.001488
  0
VERTEX
  8
0
 10
3.67101
 20
4.52083
 30
0.0
 40
0.001488
 41
0.001488
  0
VERTEX
  8
0
 10
3.67622
 20
4.52229
 30
0.0
 40
0.001488
 41
0.001488
  0
VERTEX
  8
0
 10
3.68132
 20
4.52419
 30
0.0
 40
0.001488
 41
0.001488
  0
VERTEX
  8
0
 10
3.68619
 20
4.52642
 30
0.0
 40
0.001488
 41
0.001488
  0
VERTEX
  8
0
 10
3.69092
 20
4.52908
 30
0.0
 40
0.001488
 41
0.001488
  0
VERTEX
  8
0
 10
3.69542
 20
4.53212
 30
0.0
 40
0.001488
 41
0.001488
  0
VERTEX
  8
0
 10
3.69971
 20
4.53549
 30
0.0
 40
0.001488
 41
0.001488
  0
VERTEX
  8
0
 10
3.70361
 20
4.53911
 30
0.0
 40
0.001488
 41
0.001488
  0
VERTEX
  8
0
 10
3.70731
 20
4.54308
 30
0.0
 40
0.001488
 41
0.001488
  0
VERTEX
  8
0
 10
3.71067
 20
4.54736
 30
0.0
 40
0.001488
 41
0.001488
  0
VERTEX
  8
0
 10
3.71365
 20
4.55181
 30
0.0
 40
0.001488
 41
0.001488
  0
VERTEX
  8
0
 10
3.71631
 20
4.55653
 30
0.0
 40
0.001488
 41
0.001488
  0
VERTEX
  8
0
 10
3.71858
 20
4.56147
 30
0.0
 40
0.001488
 41
0.001488
  0
VERTEX
  8
0
 10
3.72043
 20
4.56657
 30
0.0
 40
0.001488
 41
0.001488
  0
VERTEX
  8
0
 10
3.72194
 20
4.57178
 30
0.0
 40
0.001488
 41
0.001488
  0
VERTEX
  8
0
 10
3.72293
 20
4.5771
 30
0.0
 40
0.001488
 41
0.001488
  0
VERTEX
  8
0
 10
3.72364
 20
4.58242
 30
0.0
 40
0.001488
 41
0.001488
  0
VERTEX
  8
0
 10
3.72379
 20
4.58783
 30
0.0
 40
0.001488
 41
0.001488
  0
VERTEX
  8
0
 10
3.72364
 20
4.59326
 30
0.0
 40
0.001488
 41
0.001488
  0
VERTEX
  8
0
 10
3.72293
 20
4.59858
 30
0.0
 40
0.001488
 41
0.001488
  0
VERTEX
  8
0
 10
3.72194
 20
4.60389
 30
0.0
 40
0.001488
 41
0.001488
  0
VERTEX
  8
0
 10
3.72043
 20
4.6091
 30
0.0
 40
0.001488
 41
0.001488
  0
VERTEX
  8
0
 10
3.71858
 20
4.61421
 30
0.0
 40
0.001488
 41
0.001488
  0
VERTEX
  8
0
 10
3.71631
 20
4.61914
 30
0.0
 40
0.001488
 41
0.001488
  0
VERTEX
  8
0
 10
3.71365
 20
4.62386
 30
0.0
 40
0.001488
 41
0.001488
  0
VERTEX
  8
0
 10
3.71067
 20
4.62831
 30
0.0
 40
0.001488
 41
0.001488
  0
VERTEX
  8
0
 10
3.70731
 20
4.63254
 30
0.0
 40
0.001488
 41
0.001488
  0
VERTEX
  8
0
 10
3.70361
 20
4.6365
 30
0.0
 40
0.001488
 41
0.001488
  0
VERTEX
  8
0
 10
3.69971
 20
4.64019
 30
0.0
 40
0.001488
 41
0.001488
  0
VERTEX
  8
0
 10
3.69542
 20
4.6435
 30
0.0
 40
0.001488
 41
0.001488
  0
VERTEX
  8
0
 10
3.69092
 20
4.64654
 30
0.0
 40
0.001488
 41
0.001488
  0
VERTEX
  8
0
 10
3.68619
 20
4.64919
 30
0.0
 40
0.001488
 41
0.001488
  0
VERTEX
  8
0
 10
3.68132
 20
4.65142
 30
0.0
 40
0.001488
 41
0.001488
  0
VERTEX
  8
0
 10
3.67622
 20
4.65332
 30
0.0
 40
0.001488
 41
0.001488
  0
VERTEX
  8
0
 10
3.67101
 20
4.65479
 30
0.0
 40
0.001488
 41
0.001488
  0
VERTEX
  8
0
 10
3.66569
 20
4.65587
 30
0.0
 40
0.001488
 41
0.001488
  0
VERTEX
  8
0
 10
3.66032
 20
4.65647
 30
0.0
 40
0.001488
 41
0.001488
  0
VERTEX
  8
0
 10
3.65494
 20
4.65674
 30
0.0
 40
0.001488
 41
0.001488
  0
VERTEX
  8
0
 10
3.64953
 20
4.65647
 30
0.0
 40
0.001488
 41
0.001488
  0
SEQEND
 8
0
  0
ENDSEC
  0
EOF
