  0
SECTION
  2
HEADER
  9
$ACADVER
  1
AC1009
  9
$EXTMIN
 10
0.0
 20
0.0
 30
0.0
  9
$EXTMAX
 10
1000.0
 20
1000.0
 30
0.0
  9
$FILLMODE
 70
 0
  9
$SPLFRAME
 70
 1
  0
ENDSEC
  0
SECTION
  2
TABLES
  0
TABLE
  2
LAYER
 70
1
  0
LAYER
  2
0
 70
     0
 62
     7
  6
CONTINUOUS
  0
ENDTAB
  0
ENDSEC
  0
SECTION
  2
ENTITIES
  0
POLYLINE
  8
0
 62
     5
 66
     1
 10
0
 20
0
 30
0.0
 70
     1
 40
0.107136
 41
0.107136
  0
VERTEX
  8
0
 10
5.05707
 20
4.43033
 30
0.0
 40
0.001488
 41
0.001488
  0
VERTEX
  8
0
 10
5.0664
 20
4.42996
 30
0.0
 40
0.001488
 41
0.001488
  0
VERTEX
  8
0
 10
5.07557
 20
4.42893
 30
0.0
 40
0.001488
 41
0.001488
  0
VERTEX
  8
0
 10
5.08475
 20
4.42708
 30
0.0
 40
0.001488
 41
0.001488
  0
VERTEX
  8
0
 10
5.09364
 20
4.42458
 30
0.0
 40
0.001488
 41
0.001488
  0
VERTEX
  8
0
 10
5.10232
 20
4.42139
 30
0.0
 40
0.001488
 41
0.001488
  0
VERTEX
  8
0
 10
5.11074
 20
4.41749
 30
0.0
 40
0.001488
 41
0.001488
  0
VERTEX
  8
0
 10
5.11887
 20
4.41292
 30
0.0
 40
0.001488
 41
0.001488
  0
VERTEX
  8
0
 10
5.12657
 20
4.40782
 30
0.0
 40
0.001488
 41
0.001488
  0
VERTEX
  8
0
 10
5.13385
 20
4.40207
 30
0.0
 40
0.001488
 41
0.001488
  0
VERTEX
  8
0
 10
5.14068
 20
4.39578
 30
0.0
 40
0.001488
 41
0.001488
  0
VERTEX
  8
0
 10
5.14697
 20
4.38894
 30
0.0
 40
0.001488
 41
0.001488
  0
VERTEX
  8
0
 10
5.15267
 20
4.38167
 30
0.0
 40
0.001488
 41
0.001488
  0
VERTEX
  8
0
 10
5.15782
 20
4.37397
 30
0.0
 40
0.001488
 41
0.001488
  0
VERTEX
  8
0
 10
5.16238
 20
4.36583
 30
0.0
 40
0.001488
 41
0.001488
  0
VERTEX
  8
0
 10
5.16624
 20
4.35747
 30
0.0
 40
0.001488
 41
0.001488
  0
VERTEX
  8
0
 10
5.16949
 20
4.34874
 30
0.0
 40
0.001488
 41
0.001488
  0
VERTEX
  8
0
 10
5.17199
 20
4.33985
 30
0.0
 40
0.001488
 41
0.001488
  0
VERTEX
  8
0
 10
5.17383
 20
4.33074
 30
0.0
 40
0.001488
 41
0.001488
  0
VERTEX
  8
0
 10
5.17486
 20
4.3215
 30
0.0
 40
0.001488
 41
0.001488
  0
VERTEX
  8
0
 10
5.17529
 20
4.31222
 30
0.0
 40
0.001488
 41
0.001488
  0
VERTEX
  8
0
 10
5.17524
 20
0.320042
 30
0.0
 40
0.001488
 41
0.001488
  0
VERTEX
  8
0
 10
5.17486
 20
0.310818
 30
0.0
 40
0.001488
 41
0.001488
  0
VERTEX
  8
0
 10
5.17383
 20
0.301594
 30
0.0
 40
0.001488
 41
0.001488
  0
VERTEX
  8
0
 10
5.17199
 20
0.292481
 30
0.0
 40
0.001488
 41
0.001488
  0
VERTEX
  8
0
 10
5.16949
 20
0.283583
 30
0.0
 40
0.001488
 41
0.001488
  0
VERTEX
  8
0
 10
5.16624
 20
0.274849
 30
0.0
 40
0.001488
 41
0.001488
  0
VERTEX
  8
0
 10
5.16238
 20
0.266493
 30
0.0
 40
0.001488
 41
0.001488
  0
VERTEX
  8
0
 10
5.15782
 20
0.258356
 30
0.0
 40
0.001488
 41
0.001488
  0
VERTEX
  8
0
 10
5.15267
 20
0.250651
 30
0.0
 40
0.001488
 41
0.001488
  0
VERTEX
  8
0
 10
5.14697
 20
0.243381
 30
0.0
 40
0.001488
 41
0.001488
  0
VERTEX
  8
0
 10
5.14068
 20
0.236546
 30
0.0
 40
0.001488
 41
0.001488
  0
VERTEX
  8
0
 10
5.13385
 20
0.230251
 30
0.0
 40
0.001488
 41
0.001488
  0
VERTEX
  8
0
 10
5.12657
 20
0.224501
 30
0.0
 40
0.001488
 41
0.001488
  0
VERTEX
  8
0
 10
5.11887
 20
0.219401
 30
0.0
 40
0.001488
 41
0.001488
  0
VERTEX
  8
0
 10
5.11074
 20
0.214844
 30
0.0
 40
0.001488
 41
0.001488
  0
VERTEX
  8
0
 10
5.10232
 20
0.210992
 30
0.0
 40
0.001488
 41
0.001488
  0
VERTEX
  8
0
 10
5.09364
 20
0.207736
 30
0.0
 40
0.001488
 41
0.001488
  0
VERTEX
  8
0
 10
5.08475
 20
0.20524
 30
0.0
 40
0.001488
 41
0.001488
  0
VERTEX
  8
0
 10
5.07557
 20
0.203396
 30
0.0
 40
0.001488
 41
0.001488
  0
VERTEX
  8
0
 10
5.0664
 20
0.202365
 30
0.0
 40
0.001488
 41
0.001488
  0
VERTEX
  8
0
 10
5.05707
 20
0.201932
 30
0.0
 40
0.001488
 41
0.001488
  0
VERTEX
  8
0
 10
0.314996
 20
0.201932
 30
0.0
 40
0.001488
 41
0.001488
  0
VERTEX
  8
0
 10
0.305718
 20
0.202365
 30
0.0
 40
0.001488
 41
0.001488
  0
VERTEX
  8
0
 10
0.296496
 20
0.203396
 30
0.0
 40
0.001488
 41
0.001488
  0
VERTEX
  8
0
 10
0.287381
 20
0.20524
 30
0.0
 40
0.001488
 41
0.001488
  0
VERTEX
  8
0
 10
0.278483
 20
0.207736
 30
0.0
 40
0.001488
 41
0.001488
  0
VERTEX
  8
0
 10
0.269749
 20
0.210992
 30
0.0
 40
0.001488
 41
0.001488
  0
VERTEX
  8
0
 10
0.261393
 20
0.214844
 30
0.0
 40
0.001488
 41
0.001488
  0
VERTEX
  8
0
 10
0.253256
 20
0.219401
 30
0.0
 40
0.001488
 41
0.001488
  0
VERTEX
  8
0
 10
0.245551
 20
0.224501
 30
0.0
 40
0.001488
 41
0.001488
  0
VERTEX
  8
0
 10
0.238282
 20
0.230251
 30
0.0
 40
0.001488
 41
0.001488
  0
VERTEX
  8
0
 10
0.231446
 20
0.236546
 30
0.0
 40
0.001488
 41
0.001488
  0
VERTEX
  8
0
 10
0.225151
 20
0.243381
 30
0.0
 40
0.001488
 41
0.001488
  0
VERTEX
  8
0
 10
0.219401
 20
0.250651
 30
0.0
 40
0.001488
 41
0.001488
  0
VERTEX
  8
0
 10
0.214301
 20
0.258356
 30
0.0
 40
0.001488
 41
0.001488
  0
VERTEX
  8
0
 10
0.209744
 20
0.266493
 30
0.0
 40
0.001488
 41
0.001488
  0
VERTEX
  8
0
 10
0.205892
 20
0.274849
 30
0.0
 40
0.001488
 41
0.001488
  0
VERTEX
  8
0
 10
0.202636
 20
0.283583
 30
0.0
 40
0.001488
 41
0.001488
  0
VERTEX
  8
0
 10
0.200142
 20
0.292481
 30
0.0
 40
0.001488
 41
0.001488
  0
VERTEX
  8
0
 10
0.198296
 20
0.301594
 30
0.0
 40
0.001488
 41
0.001488
  0
VERTEX
  8
0
 10
0.197265
 20
0.310818
 30
0.0
 40
0.001488
 41
0.001488
  0
VERTEX
  8
0
 10
0.196832
 20
0.320096
 30
0.0
 40
0.001488
 41
0.001488
  0
VERTEX
  8
0
 10
0.196886
 20
4.31222
 30
0.0
 40
0.001488
 41
0.001488
  0
VERTEX
  8
0
 10
0.197265
 20
4.3215
 30
0.0
 40
0.001488
 41
0.001488
  0
VERTEX
  8
0
 10
0.198296
 20
4.33074
 30
0.0
 40
0.001488
 41
0.001488
  0
VERTEX
  8
0
 10
0.200142
 20
4.33985
 30
0.0
 40
0.001488
 41
0.001488
  0
VERTEX
  8
0
 10
0.202636
 20
4.34874
 30
0.0
 40
0.001488
 41
0.001488
  0
VERTEX
  8
0
 10
0.205892
 20
4.35747
 30
0.0
 40
0.001488
 41
0.001488
  0
VERTEX
  8
0
 10
0.209744
 20
4.36583
 30
0.0
 40
0.001488
 41
0.001488
  0
VERTEX
  8
0
 10
0.214301
 20
4.37397
 30
0.0
 40
0.001488
 41
0.001488
  0
VERTEX
  8
0
 10
0.219401
 20
4.38167
 30
0.0
 40
0.001488
 41
0.001488
  0
VERTEX
  8
0
 10
0.225151
 20
4.38894
 30
0.0
 40
0.001488
 41
0.001488
  0
VERTEX
  8
0
 10
0.231446
 20
4.39578
 30
0.0
 40
0.001488
 41
0.001488
  0
VERTEX
  8
0
 10
0.238282
 20
4.40207
 30
0.0
 40
0.001488
 41
0.001488
  0
VERTEX
  8
0
 10
0.245551
 20
4.40782
 30
0.0
 40
0.001488
 41
0.001488
  0
VERTEX
  8
0
 10
0.253256
 20
4.41292
 30
0.0
 40
0.001488
 41
0.001488
  0
VERTEX
  8
0
 10
0.261393
 20
4.41749
 30
0.0
 40
0.001488
 41
0.001488
  0
VERTEX
  8
0
 10
0.269749
 20
4.42139
 30
0.0
 40
0.001488
 41
0.001488
  0
VERTEX
  8
0
 10
0.278483
 20
4.42458
 30
0.0
 40
0.001488
 41
0.001488
  0
VERTEX
  8
0
 10
0.287381
 20
4.42708
 30
0.0
 40
0.001488
 41
0.001488
  0
VERTEX
  8
0
 10
0.296496
 20
4.42893
 30
0.0
 40
0.001488
 41
0.001488
  0
VERTEX
  8
0
 10
0.305718
 20
4.42996
 30
0.0
 40
0.001488
 41
0.001488
  0
VERTEX
  8
0
 10
0.314996
 20
4.43039
 30
0.0
 40
0.001488
 41
0.001488
  0
VERTEX
  8
0
 10
5.05707
 20
4.43033
 30
0.0
 40
0.001488
 41
0.001488
  0
SEQEND
 8
0
  0
POLYLINE
  8
0
 62
     5
 66
     1
 10
0
 20
0
 30
0.0
 70
     1
 40
0.107136
 41
0.107136
  0
VERTEX
  8
0
 10
2.68283
 20
0.361274
 30
0.0
 40
0.001488
 41
0.001488
  0
VERTEX
  8
0
 10
2.67964
 20
0.360949
 30
0.0
 40
0.001488
 41
0.001488
  0
VERTEX
  8
0
 10
2.67643
 20
0.360243
 30
0.0
 40
0.001488
 41
0.001488
  0
VERTEX
  8
0
 10
2.67329
 20
0.359375
 30
0.0
 40
0.001488
 41
0.001488
  0
VERTEX
  8
0
 10
2.67025
 20
0.35829
 30
0.0
 40
0.001488
 41
0.001488
  0
VERTEX
  8
0
 10
2.66726
 20
0.356933
 30
0.0
 40
0.001488
 41
0.001488
  0
VERTEX
  8
0
 10
2.66444
 20
0.35536
 30
0.0
 40
0.001488
 41
0.001488
  0
VERTEX
  8
0
 10
2.66178
 20
0.353515
 30
0.0
 40
0.001488
 41
0.001488
  0
VERTEX
  8
0
 10
2.65924
 20
0.351508
 30
0.0
 40
0.001488
 41
0.001488
  0
VERTEX
  8
0
 10
2.65685
 20
0.349338
 30
0.0
 40
0.001488
 41
0.001488
  0
VERTEX
  8
0
 10
2.65462
 20
0.346897
 30
0.0
 40
0.001488
 41
0.001488
  0
VERTEX
  8
0
 10
2.65261
 20
0.344401
 30
0.0
 40
0.001488
 41
0.001488
  0
VERTEX
  8
0
 10
2.65082
 20
0.341689
 30
0.0
 40
0.001488
 41
0.001488
  0
VERTEX
  8
0
 10
2.64919
 20
0.338867
 30
0.0
 40
0.001488
 41
0.001488
  0
VERTEX
  8
0
 10
2.64789
 20
0.335883
 30
0.0
 40
0.001488
 41
0.001488
  0
VERTEX
  8
0
 10
2.64675
 20
0.332844
 30
0.0
 40
0.001488
 41
0.001488
  0
VERTEX
  8
0
 10
2.64589
 20
0.329753
 30
0.0
 40
0.001488
 41
0.001488
  0
VERTEX
  8
0
 10
2.64524
 20
0.326551
 30
0.0
 40
0.001488
 41
0.001488
  0
VERTEX
  8
0
 10
2.64486
 20
0.323351
 30
0.0
 40
0.001488
 41
0.001488
  0
VERTEX
  8
0
 10
2.64475
 20
0.320042
 30
0.0
 40
0.001488
 41
0.001488
  0
VERTEX
  8
0
 10
2.64486
 20
0.31684
 30
0.0
 40
0.001488
 41
0.001488
  0
VERTEX
  8
0
 10
2.64524
 20
0.313585
 30
0.0
 40
0.001488
 41
0.001488
  0
VERTEX
  8
0
 10
2.64589
 20
0.310439
 30
0.0
 40
0.001488
 41
0.001488
  0
VERTEX
  8
0
 10
2.64675
 20
0.307292
 30
0.0
 40
0.001488
 41
0.001488
  0
VERTEX
  8
0
 10
2.64789
 20
0.304254
 30
0.0
 40
0.001488
 41
0.001488
  0
VERTEX
  8
0
 10
2.64919
 20
0.301324
 30
0.0
 40
0.001488
 41
0.001488
  0
VERTEX
  8
0
 10
2.65082
 20
0.298503
 30
0.0
 40
0.001488
 41
0.001488
  0
VERTEX
  8
0
 10
2.65261
 20
0.29579
 30
0.0
 40
0.001488
 41
0.001488
  0
VERTEX
  8
0
 10
2.65462
 20
0.29324
 30
0.0
 40
0.001488
 41
0.001488
  0
VERTEX
  8
0
 10
2.65685
 20
0.290853
 30
0.0
 40
0.001488
 41
0.001488
  0
VERTEX
  8
0
 10
2.65924
 20
0.288629
 30
0.0
 40
0.001488
 41
0.001488
  0
VERTEX
  8
0
 10
2.66178
 20
0.286621
 30
0.0
 40
0.001488
 41
0.001488
  0
VERTEX
  8
0
 10
2.66444
 20
0.284831
 30
0.0
 40
0.001488
 41
0.001488
  0
VERTEX
  8
0
 10
2.66726
 20
0.283257
 30
0.0
 40
0.001488
 41
0.001488
  0
VERTEX
  8
0
 10
2.67025
 20
0.281847
 30
0.0
 40
0.001488
 41
0.001488
  0
VERTEX
  8
0
 10
2.67329
 20
0.280761
 30
0.0
 40
0.001488
 41
0.001488
  0
VERTEX
  8
0
 10
2.67643
 20
0.279893
 30
0.0
 40
0.001488
 41
0.001488
  0
VERTEX
  8
0
 10
2.67964
 20
0.279243
 30
0.0
 40
0.001488
 41
0.001488
  0
VERTEX
  8
0
 10
2.68283
 20
0.278863
 30
0.0
 40
0.001488
 41
0.001488
  0
VERTEX
  8
0
 10
2.68608
 20
0.2787
 30
0.0
 40
0.001488
 41
0.001488
  0
VERTEX
  8
0
 10
2.68929
 20
0.278863
 30
0.0
 40
0.001488
 41
0.001488
  0
VERTEX
  8
0
 10
2.69254
 20
0.279243
 30
0.0
 40
0.001488
 41
0.001488
  0
VERTEX
  8
0
 10
2.69569
 20
0.279893
 30
0.0
 40
0.001488
 41
0.001488
  0
VERTEX
  8
0
 10
2.69883
 20
0.280761
 30
0.0
 40
0.001488
 41
0.001488
  0
VERTEX
  8
0
 10
2.70188
 20
0.281847
 30
0.0
 40
0.001488
 41
0.001488
  0
VERTEX
  8
0
 10
2.70486
 20
0.283257
 30
0.0
 40
0.001488
 41
0.001488
  0
VERTEX
  8
0
 10
2.70768
 20
0.284831
 30
0.0
 40
0.001488
 41
0.001488
  0
VERTEX
  8
0
 10
2.71035
 20
0.286621
 30
0.0
 40
0.001488
 41
0.001488
  0
VERTEX
  8
0
 10
2.71289
 20
0.288629
 30
0.0
 40
0.001488
 41
0.001488
  0
VERTEX
  8
0
 10
2.71528
 20
0.290853
 30
0.0
 40
0.001488
 41
0.001488
  0
VERTEX
  8
0
 10
2.7175
 20
0.29324
 30
0.0
 40
0.001488
 41
0.001488
  0
VERTEX
  8
0
 10
2.71951
 20
0.29579
 30
0.0
 40
0.001488
 41
0.001488
  0
VERTEX
  8
0
 10
2.72131
 20
0.298503
 30
0.0
 40
0.001488
 41
0.001488
  0
VERTEX
  8
0
 10
2.72293
 20
0.301324
 30
0.0
 40
0.001488
 41
0.001488
  0
VERTEX
  8
0
 10
2.72424
 20
0.304254
 30
0.0
 40
0.001488
 41
0.001488
  0
VERTEX
  8
0
 10
2.72538
 20
0.307292
 30
0.0
 40
0.001488
 41
0.001488
  0
VERTEX
  8
0
 10
2.72624
 20
0.310439
 30
0.0
 40
0.001488
 41
0.001488
  0
VERTEX
  8
0
 10
2.72689
 20
0.313585
 30
0.0
 40
0.001488
 41
0.001488
  0
VERTEX
  8
0
 10
2.72726
 20
0.31684
 30
0.0
 40
0.001488
 41
0.001488
  0
VERTEX
  8
0
 10
2.72738
 20
0.320042
 30
0.0
 40
0.001488
 41
0.001488
  0
VERTEX
  8
0
 10
2.72726
 20
0.323351
 30
0.0
 40
0.001488
 41
0.001488
  0
VERTEX
  8
0
 10
2.72689
 20
0.326551
 30
0.0
 40
0.001488
 41
0.001488
  0
VERTEX
  8
0
 10
2.72624
 20
0.329753
 30
0.0
 40
0.001488
 41
0.001488
  0
VERTEX
  8
0
 10
2.72538
 20
0.332844
 30
0.0
 40
0.001488
 41
0.001488
  0
VERTEX
  8
0
 10
2.72424
 20
0.335883
 30
0.0
 40
0.001488
 41
0.001488
  0
VERTEX
  8
0
 10
2.72293
 20
0.338867
 30
0.0
 40
0.001488
 41
0.001488
  0
VERTEX
  8
0
 10
2.72131
 20
0.341689
 30
0.0
 40
0.001488
 41
0.001488
  0
VERTEX
  8
0
 10
2.71951
 20
0.344401
 30
0.0
 40
0.001488
 41
0.001488
  0
VERTEX
  8
0
 10
2.7175
 20
0.346897
 30
0.0
 40
0.001488
 41
0.001488
  0
VERTEX
  8
0
 10
2.71528
 20
0.349338
 30
0.0
 40
0.001488
 41
0.001488
  0
VERTEX
  8
0
 10
2.71289
 20
0.351508
 30
0.0
 40
0.001488
 41
0.001488
  0
VERTEX
  8
0
 10
2.71035
 20
0.353515
 30
0.0
 40
0.001488
 41
0.001488
  0
VERTEX
  8
0
 10
2.70768
 20
0.35536
 30
0.0
 40
0.001488
 41
0.001488
  0
VERTEX
  8
0
 10
2.70486
 20
0.356933
 30
0.0
 40
0.001488
 41
0.001488
  0
VERTEX
  8
0
 10
2.70188
 20
0.35829
 30
0.0
 40
0.001488
 41
0.001488
  0
VERTEX
  8
0
 10
2.69883
 20
0.359375
 30
0.0
 40
0.001488
 41
0.001488
  0
VERTEX
  8
0
 10
2.69569
 20
0.360243
 30
0.0
 40
0.001488
 41
0.001488
  0
VERTEX
  8
0
 10
2.69254
 20
0.360949
 30
0.0
 40
0.001488
 41
0.001488
  0
VERTEX
  8
0
 10
2.68929
 20
0.361274
 30
0.0
 40
0.001488
 41
0.001488
  0
VERTEX
  8
0
 10
2.68608
 20
0.361382
 30
0.0
 40
0.001488
 41
0.001488
  0
VERTEX
  8
0
 10
2.68283
 20
0.361274
 30
0.0
 40
0.001488
 41
0.001488
  0
SEQEND
 8
0
  0
POLYLINE
  8
0
 62
     5
 66
     1
 10
0
 20
0
 30
0.0
 70
     1
 40
0.107136
 41
0.107136
  0
VERTEX
  8
0
 10
5.04232
 20
0.359537
 30
0.0
 40
0.001488
 41
0.001488
  0
VERTEX
  8
0
 10
5.03163
 20
0.354058
 30
0.0
 40
0.001488
 41
0.001488
  0
VERTEX
  8
0
 10
5.02317
 20
0.345594
 30
0.0
 40
0.001488
 41
0.001488
  0
VERTEX
  8
0
 10
5.01768
 20
0.334907
 30
0.0
 40
0.001488
 41
0.001488
  0
VERTEX
  8
0
 10
5.01579
 20
0.323025
 30
0.0
 40
0.001488
 41
0.001488
  0
VERTEX
  8
0
 10
5.01768
 20
0.311143
 30
0.0
 40
0.001488
 41
0.001488
  0
VERTEX
  8
0
 10
5.02317
 20
0.300456
 30
0.0
 40
0.001488
 41
0.001488
  0
VERTEX
  8
0
 10
5.03163
 20
0.291992
 30
0.0
 40
0.001488
 41
0.001488
  0
VERTEX
  8
0
 10
5.04232
 20
0.286513
 30
0.0
 40
0.001488
 41
0.001488
  0
VERTEX
  8
0
 10
5.05419
 20
0.284668
 30
0.0
 40
0.001488
 41
0.001488
  0
VERTEX
  8
0
 10
5.06603
 20
0.286513
 30
0.0
 40
0.001488
 41
0.001488
  0
VERTEX
  8
0
 10
5.07676
 20
0.291992
 30
0.0
 40
0.001488
 41
0.001488
  0
VERTEX
  8
0
 10
5.08518
 20
0.300456
 30
0.0
 40
0.001488
 41
0.001488
  0
VERTEX
  8
0
 10
5.09071
 20
0.311143
 30
0.0
 40
0.001488
 41
0.001488
  0
VERTEX
  8
0
 10
5.09256
 20
0.323025
 30
0.0
 40
0.001488
 41
0.001488
  0
VERTEX
  8
0
 10
5.09071
 20
0.334907
 30
0.0
 40
0.001488
 41
0.001488
  0
VERTEX
  8
0
 10
5.08518
 20
0.345594
 30
0.0
 40
0.001488
 41
0.001488
  0
VERTEX
  8
0
 10
5.07676
 20
0.354058
 30
0.0
 40
0.001488
 41
0.001488
  0
VERTEX
  8
0
 10
5.06603
 20
0.359537
 30
0.0
 40
0.001488
 41
0.001488
  0
VERTEX
  8
0
 10
5.05419
 20
0.361382
 30
0.0
 40
0.001488
 41
0.001488
  0
VERTEX
  8
0
 10
5.04232
 20
0.359537
 30
0.0
 40
0.001488
 41
0.001488
  0
SEQEND
 8
0
  0
POLYLINE
  8
0
 62
     5
 66
     1
 10
0
 20
0
 30
0.0
 70
     1
 40
0.107136
 41
0.107136
  0
VERTEX
  8
0
 10
0.306044
 20
0.359537
 30
0.0
 40
0.001488
 41
0.001488
  0
VERTEX
  8
0
 10
0.295356
 20
0.354058
 30
0.0
 40
0.001488
 41
0.001488
  0
VERTEX
  8
0
 10
0.286893
 20
0.345594
 30
0.0
 40
0.001488
 41
0.001488
  0
VERTEX
  8
0
 10
0.281412
 20
0.334907
 30
0.0
 40
0.001488
 41
0.001488
  0
VERTEX
  8
0
 10
0.279514
 20
0.323025
 30
0.0
 40
0.001488
 41
0.001488
  0
VERTEX
  8
0
 10
0.281412
 20
0.311143
 30
0.0
 40
0.001488
 41
0.001488
  0
VERTEX
  8
0
 10
0.286893
 20
0.300456
 30
0.0
 40
0.001488
 41
0.001488
  0
VERTEX
  8
0
 10
0.295356
 20
0.291992
 30
0.0
 40
0.001488
 41
0.001488
  0
VERTEX
  8
0
 10
0.306044
 20
0.286513
 30
0.0
 40
0.001488
 41
0.001488
  0
VERTEX
  8
0
 10
0.317925
 20
0.284668
 30
0.0
 40
0.001488
 41
0.001488
  0
VERTEX
  8
0
 10
0.329807
 20
0.286513
 30
0.0
 40
0.001488
 41
0.001488
  0
VERTEX
  8
0
 10
0.340494
 20
0.291992
 30
0.0
 40
0.001488
 41
0.001488
  0
VERTEX
  8
0
 10
0.348958
 20
0.300456
 30
0.0
 40
0.001488
 41
0.001488
  0
VERTEX
  8
0
 10
0.354438
 20
0.311143
 30
0.0
 40
0.001488
 41
0.001488
  0
VERTEX
  8
0
 10
0.356282
 20
0.323025
 30
0.0
 40
0.001488
 41
0.001488
  0
VERTEX
  8
0
 10
0.354438
 20
0.334907
 30
0.0
 40
0.001488
 41
0.001488
  0
VERTEX
  8
0
 10
0.348958
 20
0.345594
 30
0.0
 40
0.001488
 41
0.001488
  0
VERTEX
  8
0
 10
0.340494
 20
0.354058
 30
0.0
 40
0.001488
 41
0.001488
  0
VERTEX
  8
0
 10
0.329807
 20
0.359537
 30
0.0
 40
0.001488
 41
0.001488
  0
VERTEX
  8
0
 10
0.317925
 20
0.361382
 30
0.0
 40
0.001488
 41
0.001488
  0
VERTEX
  8
0
 10
0.306044
 20
0.359537
 30
0.0
 40
0.001488
 41
0.001488
  0
SEQEND
 8
0
  0
POLYLINE
  8
0
 62
     5
 66
     1
 10
0
 20
0
 30
0.0
 70
     1
 40
0.107136
 41
0.107136
  0
VERTEX
  8
0
 10
0.438965
 20
4.18826
 30
0.0
 40
0.001488
 41
0.001488
  0
VERTEX
  8
0
 10
4.93311
 20
4.18826
 30
0.0
 40
0.001488
 41
0.001488
  0
VERTEX
  8
0
 10
4.93311
 20
0.444065
 30
0.0
 40
0.001488
 41
0.001488
  0
VERTEX
  8
0
 10
0.438965
 20
0.444065
 30
0.0
 40
0.001488
 41
0.001488
  0
VERTEX
  8
0
 10
0.438965
 20
4.18826
 30
0.0
 40
0.001488
 41
0.001488
  0
SEQEND
 8
0
  0
POLYLINE
  8
0
 62
     5
 66
     1
 10
0
 20
0
 30
0.0
 70
     1
 40
0.107136
 41
0.107136
  0
VERTEX
  8
0
 10
0.31174
 20
2.35736
 30
0.0
 40
0.001488
 41
0.001488
  0
VERTEX
  8
0
 10
0.308485
 20
2.35699
 30
0.0
 40
0.001488
 41
0.001488
  0
VERTEX
  8
0
 10
0.305339
 20
2.35633
 30
0.0
 40
0.001488
 41
0.001488
  0
VERTEX
  8
0
 10
0.302192
 20
2.35547
 30
0.0
 40
0.001488
 41
0.001488
  0
VERTEX
  8
0
 10
0.299154
 20
2.35433
 30
0.0
 40
0.001488
 41
0.001488
  0
VERTEX
  8
0
 10
0.296224
 20
2.35303
 30
0.0
 40
0.001488
 41
0.001488
  0
VERTEX
  8
0
 10
0.293403
 20
2.3514
 30
0.0
 40
0.001488
 41
0.001488
  0
VERTEX
  8
0
 10
0.29069
 20
2.34961
 30
0.0
 40
0.001488
 41
0.001488
  0
VERTEX
  8
0
 10
0.28814
 20
2.3476
 30
0.0
 40
0.001488
 41
0.001488
  0
VERTEX
  8
0
 10
0.285753
 20
2.34538
 30
0.0
 40
0.001488
 41
0.001488
  0
VERTEX
  8
0
 10
0.283529
 20
2.34299
 30
0.0
 40
0.001488
 41
0.001488
  0
VERTEX
  8
0
 10
0.281521
 20
2.34044
 30
0.0
 40
0.001488
 41
0.001488
  0
VERTEX
  8
0
 10
0.279731
 20
2.33778
 30
0.0
 40
0.001488
 41
0.001488
  0
VERTEX
  8
0
 10
0.278157
 20
2.33496
 30
0.0
 40
0.001488
 41
0.001488
  0
VERTEX
  8
0
 10
0.276747
 20
2.33197
 30
0.0
 40
0.001488
 41
0.001488
  0
VERTEX
  8
0
 10
0.275663
 20
2.32894
 30
0.0
 40
0.001488
 41
0.001488
  0
VERTEX
  8
0
 10
0.274794
 20
2.32579
 30
0.0
 40
0.001488
 41
0.001488
  0
VERTEX
  8
0
 10
0.274143
 20
2.32264
 30
0.0
 40
0.001488
 41
0.001488
  0
VERTEX
  8
0
 10
0.273762
 20
2.31939
 30
0.0
 40
0.001488
 41
0.001488
  0
VERTEX
  8
0
 10
0.2736
 20
2.31619
 30
0.0
 40
0.001488
 41
0.001488
  0
VERTEX
  8
0
 10
0.273762
 20
2.31293
 30
0.0
 40
0.001488
 41
0.001488
  0
VERTEX
  8
0
 10
0.274143
 20
2.30974
 30
0.0
 40
0.001488
 41
0.001488
  0
VERTEX
  8
0
 10
0.274794
 20
2.30653
 30
0.0
 40
0.001488
 41
0.001488
  0
VERTEX
  8
0
 10
0.275663
 20
2.30339
 30
0.0
 40
0.001488
 41
0.001488
  0
VERTEX
  8
0
 10
0.276747
 20
2.30035
 30
0.0
 40
0.001488
 41
0.001488
  0
VERTEX
  8
0
 10
0.278157
 20
2.29736
 30
0.0
 40
0.001488
 41
0.001488
  0
VERTEX
  8
0
 10
0.279731
 20
2.29454
 30
0.0
 40
0.001488
 41
0.001488
  0
VERTEX
  8
0
 10
0.281521
 20
2.29189
 30
0.0
 40
0.001488
 41
0.001488
  0
VERTEX
  8
0
 10
0.283529
 20
2.28933
 30
0.0
 40
0.001488
 41
0.001488
  0
VERTEX
  8
0
 10
0.285753
 20
2.28694
 30
0.0
 40
0.001488
 41
0.001488
  0
VERTEX
  8
0
 10
0.28814
 20
2.28472
 30
0.0
 40
0.001488
 41
0.001488
  0
VERTEX
  8
0
 10
0.29069
 20
2.28271
 30
0.0
 40
0.001488
 41
0.001488
  0
VERTEX
  8
0
 10
0.293403
 20
2.28093
 30
0.0
 40
0.001488
 41
0.001488
  0
VERTEX
  8
0
 10
0.296224
 20
2.27929
 30
0.0
 40
0.001488
 41
0.001488
  0
VERTEX
  8
0
 10
0.299154
 20
2.278
 30
0.0
 40
0.001488
 41
0.001488
  0
VERTEX
  8
0
 10
0.302192
 20
2.27686
 30
0.0
 40
0.001488
 41
0.001488
  0
VERTEX
  8
0
 10
0.305339
 20
2.27599
 30
0.0
 40
0.001488
 41
0.001488
  0
VERTEX
  8
0
 10
0.308485
 20
2.27533
 30
0.0
 40
0.001488
 41
0.001488
  0
VERTEX
  8
0
 10
0.31174
 20
2.27496
 30
0.0
 40
0.001488
 41
0.001488
  0
VERTEX
  8
0
 10
0.314996
 20
2.27485
 30
0.0
 40
0.001488
 41
0.001488
  0
VERTEX
  8
0
 10
0.318251
 20
2.27496
 30
0.0
 40
0.001488
 41
0.001488
  0
VERTEX
  8
0
 10
0.321451
 20
2.27533
 30
0.0
 40
0.001488
 41
0.001488
  0
VERTEX
  8
0
 10
0.324653
 20
2.27599
 30
0.0
 40
0.001488
 41
0.001488
  0
VERTEX
  8
0
 10
0.327746
 20
2.27686
 30
0.0
 40
0.001488
 41
0.001488
  0
VERTEX
  8
0
 10
0.330783
 20
2.278
 30
0.0
 40
0.001488
 41
0.001488
  0
VERTEX
  8
0
 10
0.333713
 20
2.27929
 30
0.0
 40
0.001488
 41
0.001488
  0
VERTEX
  8
0
 10
0.336589
 20
2.28093
 30
0.0
 40
0.001488
 41
0.001488
  0
VERTEX
  8
0
 10
0.339301
 20
2.28271
 30
0.0
 40
0.001488
 41
0.001488
  0
VERTEX
  8
0
 10
0.341797
 20
2.28472
 30
0.0
 40
0.001488
 41
0.001488
  0
VERTEX
  8
0
 10
0.344239
 20
2.28694
 30
0.0
 40
0.001488
 41
0.001488
  0
VERTEX
  8
0
 10
0.346408
 20
2.28933
 30
0.0
 40
0.001488
 41
0.001488
  0
VERTEX
  8
0
 10
0.348415
 20
2.29189
 30
0.0
 40
0.001488
 41
0.001488
  0
VERTEX
  8
0
 10
0.350261
 20
2.29454
 30
0.0
 40
0.001488
 41
0.001488
  0
VERTEX
  8
0
 10
0.351833
 20
2.29736
 30
0.0
 40
0.001488
 41
0.001488
  0
VERTEX
  8
0
 10
0.35319
 20
2.30035
 30
0.0
 40
0.001488
 41
0.001488
  0
VERTEX
  8
0
 10
0.354275
 20
2.30339
 30
0.0
 40
0.001488
 41
0.001488
  0
VERTEX
  8
0
 10
0.355143
 20
2.30653
 30
0.0
 40
0.001488
 41
0.001488
  0
VERTEX
  8
0
 10
0.355849
 20
2.30974
 30
0.0
 40
0.001488
 41
0.001488
  0
VERTEX
  8
0
 10
0.356174
 20
2.31293
 30
0.0
 40
0.001488
 41
0.001488
  0
VERTEX
  8
0
 10
0.356337
 20
2.31619
 30
0.0
 40
0.001488
 41
0.001488
  0
VERTEX
  8
0
 10
0.356174
 20
2.31939
 30
0.0
 40
0.001488
 41
0.001488
  0
VERTEX
  8
0
 10
0.355849
 20
2.32264
 30
0.0
 40
0.001488
 41
0.001488
  0
VERTEX
  8
0
 10
0.355143
 20
2.32579
 30
0.0
 40
0.001488
 41
0.001488
  0
VERTEX
  8
0
 10
0.354275
 20
2.32894
 30
0.0
 40
0.001488
 41
0.001488
  0
VERTEX
  8
0
 10
0.35319
 20
2.33197
 30
0.0
 40
0.001488
 41
0.001488
  0
VERTEX
  8
0
 10
0.351833
 20
2.33496
 30
0.0
 40
0.001488
 41
0.001488
  0
VERTEX
  8
0
 10
0.350261
 20
2.33778
 30
0.0
 40
0.001488
 41
0.001488
  0
VERTEX
  8
0
 10
0.348415
 20
2.34044
 30
0.0
 40
0.001488
 41
0.001488
  0
VERTEX
  8
0
 10
0.346408
 20
2.34299
 30
0.0
 40
0.001488
 41
0.001488
  0
VERTEX
  8
0
 10
0.344239
 20
2.34538
 30
0.0
 40
0.001488
 41
0.001488
  0
VERTEX
  8
0
 10
0.341797
 20
2.3476
 30
0.0
 40
0.001488
 41
0.001488
  0
VERTEX
  8
0
 10
0.339301
 20
2.34961
 30
0.0
 40
0.001488
 41
0.001488
  0
VERTEX
  8
0
 10
0.336589
 20
2.3514
 30
0.0
 40
0.001488
 41
0.001488
  0
VERTEX
  8
0
 10
0.333713
 20
2.35303
 30
0.0
 40
0.001488
 41
0.001488
  0
VERTEX
  8
0
 10
0.330783
 20
2.35433
 30
0.0
 40
0.001488
 41
0.001488
  0
VERTEX
  8
0
 10
0.327746
 20
2.35547
 30
0.0
 40
0.001488
 41
0.001488
  0
VERTEX
  8
0
 10
0.324653
 20
2.35633
 30
0.0
 40
0.001488
 41
0.001488
  0
VERTEX
  8
0
 10
0.321451
 20
2.35699
 30
0.0
 40
0.001488
 41
0.001488
  0
VERTEX
  8
0
 10
0.318251
 20
2.35736
 30
0.0
 40
0.001488
 41
0.001488
  0
VERTEX
  8
0
 10
0.314996
 20
2.35747
 30
0.0
 40
0.001488
 41
0.001488
  0
VERTEX
  8
0
 10
0.31174
 20
2.35736
 30
0.0
 40
0.001488
 41
0.001488
  0
SEQEND
 8
0
  0
POLYLINE
  8
0
 62
     5
 66
     1
 10
0
 20
0
 30
0.0
 70
     1
 40
0.107136
 41
0.107136
  0
VERTEX
  8
0
 10
5.05388
 20
2.35736
 30
0.0
 40
0.001488
 41
0.001488
  0
VERTEX
  8
0
 10
5.05067
 20
2.35699
 30
0.0
 40
0.001488
 41
0.001488
  0
VERTEX
  8
0
 10
5.04747
 20
2.35633
 30
0.0
 40
0.001488
 41
0.001488
  0
VERTEX
  8
0
 10
5.04438
 20
2.35547
 30
0.0
 40
0.001488
 41
0.001488
  0
VERTEX
  8
0
 10
5.04135
 20
2.35433
 30
0.0
 40
0.001488
 41
0.001488
  0
VERTEX
  8
0
 10
5.03842
 20
2.35303
 30
0.0
 40
0.001488
 41
0.001488
  0
VERTEX
  8
0
 10
5.03554
 20
2.3514
 30
0.0
 40
0.001488
 41
0.001488
  0
VERTEX
  8
0
 10
5.03282
 20
2.34961
 30
0.0
 40
0.001488
 41
0.001488
  0
VERTEX
  8
0
 10
5.03033
 20
2.3476
 30
0.0
 40
0.001488
 41
0.001488
  0
VERTEX
  8
0
 10
5.02789
 20
2.34538
 30
0.0
 40
0.001488
 41
0.001488
  0
VERTEX
  8
0
 10
5.02572
 20
2.34299
 30
0.0
 40
0.001488
 41
0.001488
  0
VERTEX
  8
0
 10
5.02371
 20
2.34044
 30
0.0
 40
0.001488
 41
0.001488
  0
VERTEX
  8
0
 10
5.02186
 20
2.33778
 30
0.0
 40
0.001488
 41
0.001488
  0
VERTEX
  8
0
 10
5.02029
 20
2.33496
 30
0.0
 40
0.001488
 41
0.001488
  0
VERTEX
  8
0
 10
5.01893
 20
2.33197
 30
0.0
 40
0.001488
 41
0.001488
  0
VERTEX
  8
0
 10
5.01785
 20
2.32894
 30
0.0
 40
0.001488
 41
0.001488
  0
VERTEX
  8
0
 10
5.01699
 20
2.32579
 30
0.0
 40
0.001488
 41
0.001488
  0
VERTEX
  8
0
 10
5.01628
 20
2.32264
 30
0.0
 40
0.001488
 41
0.001488
  0
VERTEX
  8
0
 10
5.01594
 20
2.31939
 30
0.0
 40
0.001488
 41
0.001488
  0
VERTEX
  8
0
 10
5.01579
 20
2.31619
 30
0.0
 40
0.001488
 41
0.001488
  0
VERTEX
  8
0
 10
5.01594
 20
2.31293
 30
0.0
 40
0.001488
 41
0.001488
  0
VERTEX
  8
0
 10
5.01628
 20
2.30974
 30
0.0
 40
0.001488
 41
0.001488
  0
VERTEX
  8
0
 10
5.01699
 20
2.30653
 30
0.0
 40
0.001488
 41
0.001488
  0
VERTEX
  8
0
 10
5.01785
 20
2.30339
 30
0.0
 40
0.001488
 41
0.001488
  0
VERTEX
  8
0
 10
5.01893
 20
2.30035
 30
0.0
 40
0.001488
 41
0.001488
  0
VERTEX
  8
0
 10
5.02029
 20
2.29736
 30
0.0
 40
0.001488
 41
0.001488
  0
VERTEX
  8
0
 10
5.02186
 20
2.29454
 30
0.0
 40
0.001488
 41
0.001488
  0
VERTEX
  8
0
 10
5.02371
 20
2.29189
 30
0.0
 40
0.001488
 41
0.001488
  0
VERTEX
  8
0
 10
5.02572
 20
2.28933
 30
0.0
 40
0.001488
 41
0.001488
  0
VERTEX
  8
0
 10
5.02789
 20
2.28694
 30
0.0
 40
0.001488
 41
0.001488
  0
VERTEX
  8
0
 10
5.03033
 20
2.28472
 30
0.0
 40
0.001488
 41
0.001488
  0
VERTEX
  8
0
 10
5.03282
 20
2.28271
 30
0.0
 40
0.001488
 41
0.001488
  0
VERTEX
  8
0
 10
5.03554
 20
2.28093
 30
0.0
 40
0.001488
 41
0.001488
  0
VERTEX
  8
0
 10
5.03842
 20
2.27929
 30
0.0
 40
0.001488
 41
0.001488
  0
VERTEX
  8
0
 10
5.04135
 20
2.278
 30
0.0
 40
0.001488
 41
0.001488
  0
VERTEX
  8
0
 10
5.04438
 20
2.27686
 30
0.0
 40
0.001488
 41
0.001488
  0
VERTEX
  8
0
 10
5.04747
 20
2.27599
 30
0.0
 40
0.001488
 41
0.001488
  0
VERTEX
  8
0
 10
5.05067
 20
2.27533
 30
0.0
 40
0.001488
 41
0.001488
  0
VERTEX
  8
0
 10
5.05388
 20
2.27496
 30
0.0
 40
0.001488
 41
0.001488
  0
VERTEX
  8
0
 10
5.05707
 20
2.27485
 30
0.0
 40
0.001488
 41
0.001488
  0
VERTEX
  8
0
 10
5.06033
 20
2.27496
 30
0.0
 40
0.001488
 41
0.001488
  0
VERTEX
  8
0
 10
5.06364
 20
2.27533
 30
0.0
 40
0.001488
 41
0.001488
  0
VERTEX
  8
0
 10
5.06679
 20
2.27599
 30
0.0
 40
0.001488
 41
0.001488
  0
VERTEX
  8
0
 10
5.06993
 20
2.27686
 30
0.0
 40
0.001488
 41
0.001488
  0
VERTEX
  8
0
 10
5.07297
 20
2.278
 30
0.0
 40
0.001488
 41
0.001488
  0
VERTEX
  8
0
 10
5.07585
 20
2.27929
 30
0.0
 40
0.001488
 41
0.001488
  0
VERTEX
  8
0
 10
5.07872
 20
2.28093
 30
0.0
 40
0.001488
 41
0.001488
  0
VERTEX
  8
0
 10
5.08143
 20
2.28271
 30
0.0
 40
0.001488
 41
0.001488
  0
VERTEX
  8
0
 10
5.08399
 20
2.28472
 30
0.0
 40
0.001488
 41
0.001488
  0
VERTEX
  8
0
 10
5.08637
 20
2.28694
 30
0.0
 40
0.001488
 41
0.001488
  0
VERTEX
  8
0
 10
5.0886
 20
2.28933
 30
0.0
 40
0.001488
 41
0.001488
  0
VERTEX
  8
0
 10
5.0906
 20
2.29189
 30
0.0
 40
0.001488
 41
0.001488
  0
VERTEX
  8
0
 10
5.09239
 20
2.29454
 30
0.0
 40
0.001488
 41
0.001488
  0
VERTEX
  8
0
 10
5.09397
 20
2.29736
 30
0.0
 40
0.001488
 41
0.001488
  0
VERTEX
  8
0
 10
5.09532
 20
2.30035
 30
0.0
 40
0.001488
 41
0.001488
  0
VERTEX
  8
0
 10
5.09646
 20
2.30339
 30
0.0
 40
0.001488
 41
0.001488
  0
VERTEX
  8
0
 10
5.09733
 20
2.30653
 30
0.0
 40
0.001488
 41
0.001488
  0
VERTEX
  8
0
 10
5.09799
 20
2.30974
 30
0.0
 40
0.001488
 41
0.001488
  0
VERTEX
  8
0
 10
5.09836
 20
2.31293
 30
0.0
 40
0.001488
 41
0.001488
  0
VERTEX
  8
0
 10
5.09847
 20
2.31619
 30
0.0
 40
0.001488
 41
0.001488
  0
VERTEX
  8
0
 10
5.09836
 20
2.31939
 30
0.0
 40
0.001488
 41
0.001488
  0
VERTEX
  8
0
 10
5.09799
 20
2.32264
 30
0.0
 40
0.001488
 41
0.001488
  0
VERTEX
  8
0
 10
5.09733
 20
2.32579
 30
0.0
 40
0.001488
 41
0.001488
  0
VERTEX
  8
0
 10
5.09646
 20
2.32894
 30
0.0
 40
0.001488
 41
0.001488
  0
VERTEX
  8
0
 10
5.09532
 20
2.33197
 30
0.0
 40
0.001488
 41
0.001488
  0
VERTEX
  8
0
 10
5.09397
 20
2.33496
 30
0.0
 40
0.001488
 41
0.001488
  0
VERTEX
  8
0
 10
5.09239
 20
2.33778
 30
0.0
 40
0.001488
 41
0.001488
  0
VERTEX
  8
0
 10
5.0906
 20
2.34044
 30
0.0
 40
0.001488
 41
0.001488
  0
VERTEX
  8
0
 10
5.0886
 20
2.34299
 30
0.0
 40
0.001488
 41
0.001488
  0
VERTEX
  8
0
 10
5.08637
 20
2.34538
 30
0.0
 40
0.001488
 41
0.001488
  0
VERTEX
  8
0
 10
5.08399
 20
2.3476
 30
0.0
 40
0.001488
 41
0.001488
  0
VERTEX
  8
0
 10
5.08143
 20
2.34961
 30
0.0
 40
0.001488
 41
0.001488
  0
VERTEX
  8
0
 10
5.07872
 20
2.3514
 30
0.0
 40
0.001488
 41
0.001488
  0
VERTEX
  8
0
 10
5.07585
 20
2.35303
 30
0.0
 40
0.001488
 41
0.001488
  0
VERTEX
  8
0
 10
5.07297
 20
2.35433
 30
0.0
 40
0.001488
 41
0.001488
  0
VERTEX
  8
0
 10
5.06993
 20
2.35547
 30
0.0
 40
0.001488
 41
0.001488
  0
VERTEX
  8
0
 10
5.06679
 20
2.35633
 30
0.0
 40
0.001488
 41
0.001488
  0
VERTEX
  8
0
 10
5.06364
 20
2.35699
 30
0.0
 40
0.001488
 41
0.001488
  0
VERTEX
  8
0
 10
5.06033
 20
2.35736
 30
0.0
 40
0.001488
 41
0.001488
  0
VERTEX
  8
0
 10
5.05707
 20
2.35747
 30
0.0
 40
0.001488
 41
0.001488
  0
VERTEX
  8
0
 10
5.05388
 20
2.35736
 30
0.0
 40
0.001488
 41
0.001488
  0
SEQEND
 8
0
  0
POLYLINE
  8
0
 62
     5
 66
     1
 10
0
 20
0
 30
0.0
 70
     1
 40
0.107136
 41
0.107136
  0
VERTEX
  8
0
 10
0.306044
 20
4.34581
 30
0.0
 40
0.001488
 41
0.001488
  0
VERTEX
  8
0
 10
0.295356
 20
4.34033
 30
0.0
 40
0.001488
 41
0.001488
  0
VERTEX
  8
0
 10
0.286893
 20
4.33187
 30
0.0
 40
0.001488
 41
0.001488
  0
VERTEX
  8
0
 10
0.281412
 20
4.32118
 30
0.0
 40
0.001488
 41
0.001488
  0
VERTEX
  8
0
 10
0.279514
 20
4.30931
 30
0.0
 40
0.001488
 41
0.001488
  0
VERTEX
  8
0
 10
0.281412
 20
4.29742
 30
0.0
 40
0.001488
 41
0.001488
  0
VERTEX
  8
0
 10
0.286893
 20
4.28674
 30
0.0
 40
0.001488
 41
0.001488
  0
VERTEX
  8
0
 10
0.295356
 20
4.27826
 30
0.0
 40
0.001488
 41
0.001488
  0
VERTEX
  8
0
 10
0.306044
 20
4.27279
 30
0.0
 40
0.001488
 41
0.001488
  0
VERTEX
  8
0
 10
0.317925
 20
4.27089
 30
0.0
 40
0.001488
 41
0.001488
  0
VERTEX
  8
0
 10
0.329807
 20
4.27279
 30
0.0
 40
0.001488
 41
0.001488
  0
VERTEX
  8
0
 10
0.340494
 20
4.27826
 30
0.0
 40
0.001488
 41
0.001488
  0
VERTEX
  8
0
 10
0.348958
 20
4.28674
 30
0.0
 40
0.001488
 41
0.001488
  0
VERTEX
  8
0
 10
0.354438
 20
4.29742
 30
0.0
 40
0.001488
 41
0.001488
  0
VERTEX
  8
0
 10
0.356282
 20
4.30931
 30
0.0
 40
0.001488
 41
0.001488
  0
VERTEX
  8
0
 10
0.354438
 20
4.32118
 30
0.0
 40
0.001488
 41
0.001488
  0
VERTEX
  8
0
 10
0.348958
 20
4.33187
 30
0.0
 40
0.001488
 41
0.001488
  0
VERTEX
  8
0
 10
0.340494
 20
4.34033
 30
0.0
 40
0.001488
 41
0.001488
  0
VERTEX
  8
0
 10
0.329807
 20
4.34581
 30
0.0
 40
0.001488
 41
0.001488
  0
VERTEX
  8
0
 10
0.317925
 20
4.34765
 30
0.0
 40
0.001488
 41
0.001488
  0
VERTEX
  8
0
 10
0.306044
 20
4.34581
 30
0.0
 40
0.001488
 41
0.001488
  0
SEQEND
 8
0
  0
POLYLINE
  8
0
 62
     5
 66
     1
 10
0
 20
0
 30
0.0
 70
     1
 40
0.107136
 41
0.107136
  0
VERTEX
  8
0
 10
2.6281
 20
4.35346
 30
0.0
 40
0.001488
 41
0.001488
  0
VERTEX
  8
0
 10
2.62483
 20
4.35308
 30
0.0
 40
0.001488
 41
0.001488
  0
VERTEX
  8
0
 10
2.62164
 20
4.35243
 30
0.0
 40
0.001488
 41
0.001488
  0
VERTEX
  8
0
 10
2.61854
 20
4.35157
 30
0.0
 40
0.001488
 41
0.001488
  0
VERTEX
  8
0
 10
2.61546
 20
4.35047
 30
0.0
 40
0.001488
 41
0.001488
  0
VERTEX
  8
0
 10
2.61253
 20
4.34907
 30
0.0
 40
0.001488
 41
0.001488
  0
VERTEX
  8
0
 10
2.60969
 20
4.3475
 30
0.0
 40
0.001488
 41
0.001488
  0
VERTEX
  8
0
 10
2.60699
 20
4.34571
 30
0.0
 40
0.001488
 41
0.001488
  0
VERTEX
  8
0
 10
2.60444
 20
4.34369
 30
0.0
 40
0.001488
 41
0.001488
  0
VERTEX
  8
0
 10
2.60211
 20
4.34147
 30
0.0
 40
0.001488
 41
0.001488
  0
VERTEX
  8
0
 10
2.59987
 20
4.33908
 30
0.0
 40
0.001488
 41
0.001488
  0
VERTEX
  8
0
 10
2.59787
 20
4.33653
 30
0.0
 40
0.001488
 41
0.001488
  0
VERTEX
  8
0
 10
2.59608
 20
4.33382
 30
0.0
 40
0.001488
 41
0.001488
  0
VERTEX
  8
0
 10
2.59446
 20
4.331
 30
0.0
 40
0.001488
 41
0.001488
  0
VERTEX
  8
0
 10
2.5931
 20
4.32807
 30
0.0
 40
0.001488
 41
0.001488
  0
VERTEX
  8
0
 10
2.59196
 20
4.32503
 30
0.0
 40
0.001488
 41
0.001488
  0
VERTEX
  8
0
 10
2.5911
 20
4.32189
 30
0.0
 40
0.001488
 41
0.001488
  0
VERTEX
  8
0
 10
2.5905
 20
4.31874
 30
0.0
 40
0.001488
 41
0.001488
  0
VERTEX
  8
0
 10
2.59006
 20
4.31549
 30
0.0
 40
0.001488
 41
0.001488
  0
VERTEX
  8
0
 10
2.58996
 20
4.31222
 30
0.0
 40
0.001488
 41
0.001488
  0
VERTEX
  8
0
 10
2.59006
 20
4.30897
 30
0.0
 40
0.001488
 41
0.001488
  0
VERTEX
  8
0
 10
2.5905
 20
4.30578
 30
0.0
 40
0.001488
 41
0.001488
  0
VERTEX
  8
0
 10
2.5911
 20
4.30257
 30
0.0
 40
0.001488
 41
0.001488
  0
VERTEX
  8
0
 10
2.59196
 20
4.29949
 30
0.0
 40
0.001488
 41
0.001488
  0
VERTEX
  8
0
 10
2.5931
 20
4.29644
 30
0.0
 40
0.001488
 41
0.001488
  0
VERTEX
  8
0
 10
2.59446
 20
4.29351
 30
0.0
 40
0.001488
 41
0.001488
  0
VERTEX
  8
0
 10
2.59608
 20
4.29064
 30
0.0
 40
0.001488
 41
0.001488
  0
VERTEX
  8
0
 10
2.59787
 20
4.28792
 30
0.0
 40
0.001488
 41
0.001488
  0
VERTEX
  8
0
 10
2.59987
 20
4.28543
 30
0.0
 40
0.001488
 41
0.001488
  0
VERTEX
  8
0
 10
2.60211
 20
4.28304
 30
0.0
 40
0.001488
 41
0.001488
  0
VERTEX
  8
0
 10
2.60444
 20
4.28082
 30
0.0
 40
0.001488
 41
0.001488
  0
VERTEX
  8
0
 10
2.60699
 20
4.27881
 30
0.0
 40
0.001488
 41
0.001488
  0
VERTEX
  8
0
 10
2.60969
 20
4.27696
 30
0.0
 40
0.001488
 41
0.001488
  0
VERTEX
  8
0
 10
2.61253
 20
4.27539
 30
0.0
 40
0.001488
 41
0.001488
  0
VERTEX
  8
0
 10
2.61546
 20
4.27403
 30
0.0
 40
0.001488
 41
0.001488
  0
VERTEX
  8
0
 10
2.61854
 20
4.27294
 30
0.0
 40
0.001488
 41
0.001488
  0
VERTEX
  8
0
 10
2.62164
 20
4.27208
 30
0.0
 40
0.001488
 41
0.001488
  0
VERTEX
  8
0
 10
2.62483
 20
4.27138
 30
0.0
 40
0.001488
 41
0.001488
  0
VERTEX
  8
0
 10
2.6281
 20
4.27106
 30
0.0
 40
0.001488
 41
0.001488
  0
VERTEX
  8
0
 10
2.63129
 20
4.27089
 30
0.0
 40
0.001488
 41
0.001488
  0
VERTEX
  8
0
 10
2.63456
 20
4.27106
 30
0.0
 40
0.001488
 41
0.001488
  0
VERTEX
  8
0
 10
2.63775
 20
4.27138
 30
0.0
 40
0.001488
 41
0.001488
  0
VERTEX
  8
0
 10
2.64094
 20
4.27208
 30
0.0
 40
0.001488
 41
0.001488
  0
VERTEX
  8
0
 10
2.64404
 20
4.27294
 30
0.0
 40
0.001488
 41
0.001488
  0
VERTEX
  8
0
 10
2.64714
 20
4.27403
 30
0.0
 40
0.001488
 41
0.001488
  0
VERTEX
  8
0
 10
2.65007
 20
4.27539
 30
0.0
 40
0.001488
 41
0.001488
  0
VERTEX
  8
0
 10
2.65289
 20
4.27696
 30
0.0
 40
0.001488
 41
0.001488
  0
VERTEX
  8
0
 10
2.6556
 20
4.27881
 30
0.0
 40
0.001488
 41
0.001488
  0
VERTEX
  8
0
 10
2.65815
 20
4.28082
 30
0.0
 40
0.001488
 41
0.001488
  0
VERTEX
  8
0
 10
2.66054
 20
4.28304
 30
0.0
 40
0.001488
 41
0.001488
  0
VERTEX
  8
0
 10
2.66271
 20
4.28543
 30
0.0
 40
0.001488
 41
0.001488
  0
VERTEX
  8
0
 10
2.66471
 20
4.28792
 30
0.0
 40
0.001488
 41
0.001488
  0
VERTEX
  8
0
 10
2.66656
 20
4.29064
 30
0.0
 40
0.001488
 41
0.001488
  0
VERTEX
  8
0
 10
2.66812
 20
4.29351
 30
0.0
 40
0.001488
 41
0.001488
  0
VERTEX
  8
0
 10
2.66949
 20
4.29644
 30
0.0
 40
0.001488
 41
0.001488
  0
VERTEX
  8
0
 10
2.67063
 20
4.29949
 30
0.0
 40
0.001488
 41
0.001488
  0
VERTEX
  8
0
 10
2.6715
 20
4.30257
 30
0.0
 40
0.001488
 41
0.001488
  0
VERTEX
  8
0
 10
2.67215
 20
4.30578
 30
0.0
 40
0.001488
 41
0.001488
  0
VERTEX
  8
0
 10
2.67253
 20
4.30897
 30
0.0
 40
0.001488
 41
0.001488
  0
VERTEX
  8
0
 10
2.67264
 20
4.31222
 30
0.0
 40
0.001488
 41
0.001488
  0
VERTEX
  8
0
 10
2.67253
 20
4.31549
 30
0.0
 40
0.001488
 41
0.001488
  0
VERTEX
  8
0
 10
2.67215
 20
4.31874
 30
0.0
 40
0.001488
 41
0.001488
  0
VERTEX
  8
0
 10
2.6715
 20
4.32189
 30
0.0
 40
0.001488
 41
0.001488
  0
VERTEX
  8
0
 10
2.67063
 20
4.32503
 30
0.0
 40
0.001488
 41
0.001488
  0
VERTEX
  8
0
 10
2.66949
 20
4.32807
 30
0.0
 40
0.001488
 41
0.001488
  0
VERTEX
  8
0
 10
2.66812
 20
4.331
 30
0.0
 40
0.001488
 41
0.001488
  0
VERTEX
  8
0
 10
2.66656
 20
4.33382
 30
0.0
 40
0.001488
 41
0.001488
  0
VERTEX
  8
0
 10
2.66471
 20
4.33653
 30
0.0
 40
0.001488
 41
0.001488
  0
VERTEX
  8
0
 10
2.66271
 20
4.33908
 30
0.0
 40
0.001488
 41
0.001488
  0
VERTEX
  8
0
 10
2.66054
 20
4.34147
 30
0.0
 40
0.001488
 41
0.001488
  0
VERTEX
  8
0
 10
2.65815
 20
4.34369
 30
0.0
 40
0.001488
 41
0.001488
  0
VERTEX
  8
0
 10
2.6556
 20
4.34571
 30
0.0
 40
0.001488
 41
0.001488
  0
VERTEX
  8
0
 10
2.65289
 20
4.3475
 30
0.0
 40
0.001488
 41
0.001488
  0
VERTEX
  8
0
 10
2.65007
 20
4.34907
 30
0.0
 40
0.001488
 41
0.001488
  0
VERTEX
  8
0
 10
2.64714
 20
4.35047
 30
0.0
 40
0.001488
 41
0.001488
  0
VERTEX
  8
0
 10
2.64404
 20
4.35157
 30
0.0
 40
0.001488
 41
0.001488
  0
VERTEX
  8
0
 10
2.64094
 20
4.35243
 30
0.0
 40
0.001488
 41
0.001488
  0
VERTEX
  8
0
 10
2.63775
 20
4.35308
 30
0.0
 40
0.001488
 41
0.001488
  0
VERTEX
  8
0
 10
2.63456
 20
4.35346
 30
0.0
 40
0.001488
 41
0.001488
  0
VERTEX
  8
0
 10
2.63129
 20
4.35357
 30
0.0
 40
0.001488
 41
0.001488
  0
VERTEX
  8
0
 10
2.6281
 20
4.35346
 30
0.0
 40
0.001488
 41
0.001488
  0
SEQEND
 8
0
  0
POLYLINE
  8
0
 62
     5
 66
     1
 10
0
 20
0
 30
0.0
 70
     1
 40
0.107136
 41
0.107136
  0
VERTEX
  8
0
 10
3.65169
 20
4.35346
 30
0.0
 40
0.001488
 41
0.001488
  0
VERTEX
  8
0
 10
3.64844
 20
4.35308
 30
0.0
 40
0.001488
 41
0.001488
  0
VERTEX
  8
0
 10
3.64529
 20
4.35243
 30
0.0
 40
0.001488
 41
0.001488
  0
VERTEX
  8
0
 10
3.64214
 20
4.35157
 30
0.0
 40
0.001488
 41
0.001488
  0
VERTEX
  8
0
 10
3.63911
 20
4.35047
 30
0.0
 40
0.001488
 41
0.001488
  0
VERTEX
  8
0
 10
3.63612
 20
4.34907
 30
0.0
 40
0.001488
 41
0.001488
  0
VERTEX
  8
0
 10
3.63331
 20
4.3475
 30
0.0
 40
0.001488
 41
0.001488
  0
VERTEX
  8
0
 10
3.63064
 20
4.34571
 30
0.0
 40
0.001488
 41
0.001488
  0
VERTEX
  8
0
 10
3.6281
 20
4.34369
 30
0.0
 40
0.001488
 41
0.001488
  0
VERTEX
  8
0
 10
3.62571
 20
4.34147
 30
0.0
 40
0.001488
 41
0.001488
  0
VERTEX
  8
0
 10
3.62349
 20
4.33908
 30
0.0
 40
0.001488
 41
0.001488
  0
VERTEX
  8
0
 10
3.62147
 20
4.33653
 30
0.0
 40
0.001488
 41
0.001488
  0
VERTEX
  8
0
 10
3.61968
 20
4.33382
 30
0.0
 40
0.001488
 41
0.001488
  0
VERTEX
  8
0
 10
3.61806
 20
4.331
 30
0.0
 40
0.001488
 41
0.001488
  0
VERTEX
  8
0
 10
3.61675
 20
4.32807
 30
0.0
 40
0.001488
 41
0.001488
  0
VERTEX
  8
0
 10
3.61561
 20
4.32503
 30
0.0
 40
0.001488
 41
0.001488
  0
VERTEX
  8
0
 10
3.61475
 20
4.32189
 30
0.0
 40
0.001488
 41
0.001488
  0
VERTEX
  8
0
 10
3.6141
 20
4.31874
 30
0.0
 40
0.001488
 41
0.001488
  0
VERTEX
  8
0
 10
3.61372
 20
4.31549
 30
0.0
 40
0.001488
 41
0.001488
  0
VERTEX
  8
0
 10
3.61361
 20
4.31222
 30
0.0
 40
0.001488
 41
0.001488
  0
VERTEX
  8
0
 10
3.61372
 20
4.30897
 30
0.0
 40
0.001488
 41
0.001488
  0
VERTEX
  8
0
 10
3.6141
 20
4.30578
 30
0.0
 40
0.001488
 41
0.001488
  0
VERTEX
  8
0
 10
3.61475
 20
4.30257
 30
0.0
 40
0.001488
 41
0.001488
  0
VERTEX
  8
0
 10
3.61561
 20
4.29949
 30
0.0
 40
0.001488
 41
0.001488
  0
VERTEX
  8
0
 10
3.61675
 20
4.29644
 30
0.0
 40
0.001488
 41
0.001488
  0
VERTEX
  8
0
 10
3.61806
 20
4.29351
 30
0.0
 40
0.001488
 41
0.001488
  0
VERTEX
  8
0
 10
3.61968
 20
4.29064
 30
0.0
 40
0.001488
 41
0.001488
  0
VERTEX
  8
0
 10
3.62147
 20
4.28792
 30
0.0
 40
0.001488
 41
0.001488
  0
VERTEX
  8
0
 10
3.62349
 20
4.28543
 30
0.0
 40
0.001488
 41
0.001488
  0
VERTEX
  8
0
 10
3.62571
 20
4.28304
 30
0.0
 40
0.001488
 41
0.001488
  0
VERTEX
  8
0
 10
3.6281
 20
4.28082
 30
0.0
 40
0.001488
 41
0.001488
  0
VERTEX
  8
0
 10
3.63064
 20
4.27881
 30
0.0
 40
0.001488
 41
0.001488
  0
VERTEX
  8
0
 10
3.63331
 20
4.27696
 30
0.0
 40
0.001488
 41
0.001488
  0
VERTEX
  8
0
 10
3.63612
 20
4.27539
 30
0.0
 40
0.001488
 41
0.001488
  0
VERTEX
  8
0
 10
3.63911
 20
4.27403
 30
0.0
 40
0.001488
 41
0.001488
  0
VERTEX
  8
0
 10
3.64214
 20
4.27294
 30
0.0
 40
0.001488
 41
0.001488
  0
VERTEX
  8
0
 10
3.64529
 20
4.27208
 30
0.0
 40
0.001488
 41
0.001488
  0
VERTEX
  8
0
 10
3.64844
 20
4.27138
 30
0.0
 40
0.001488
 41
0.001488
  0
VERTEX
  8
0
 10
3.65169
 20
4.27106
 30
0.0
 40
0.001488
 41
0.001488
  0
VERTEX
  8
0
 10
3.65494
 20
4.27089
 30
0.0
 40
0.001488
 41
0.001488
  0
VERTEX
  8
0
 10
3.65815
 20
4.27106
 30
0.0
 40
0.001488
 41
0.001488
  0
VERTEX
  8
0
 10
3.6614
 20
4.27138
 30
0.0
 40
0.001488
 41
0.001488
  0
VERTEX
  8
0
 10
3.66456
 20
4.27208
 30
0.0
 40
0.001488
 41
0.001488
  0
VERTEX
  8
0
 10
3.66769
 20
4.27294
 30
0.0
 40
0.001488
 41
0.001488
  0
VERTEX
  8
0
 10
3.67074
 20
4.27403
 30
0.0
 40
0.001488
 41
0.001488
  0
VERTEX
  8
0
 10
3.67372
 20
4.27539
 30
0.0
 40
0.001488
 41
0.001488
  0
VERTEX
  8
0
 10
3.67654
 20
4.27696
 30
0.0
 40
0.001488
 41
0.001488
  0
VERTEX
  8
0
 10
3.67919
 20
4.27881
 30
0.0
 40
0.001488
 41
0.001488
  0
VERTEX
  8
0
 10
3.68175
 20
4.28082
 30
0.0
 40
0.001488
 41
0.001488
  0
VERTEX
  8
0
 10
3.68414
 20
4.28304
 30
0.0
 40
0.001488
 41
0.001488
  0
VERTEX
  8
0
 10
3.68636
 20
4.28543
 30
0.0
 40
0.001488
 41
0.001488
  0
VERTEX
  8
0
 10
3.68837
 20
4.28792
 30
0.0
 40
0.001488
 41
0.001488
  0
VERTEX
  8
0
 10
3.69015
 20
4.29064
 30
0.0
 40
0.001488
 41
0.001488
  0
VERTEX
  8
0
 10
3.69179
 20
4.29351
 30
0.0
 40
0.001488
 41
0.001488
  0
VERTEX
  8
0
 10
3.69308
 20
4.29644
 30
0.0
 40
0.001488
 41
0.001488
  0
VERTEX
  8
0
 10
3.69422
 20
4.29949
 30
0.0
 40
0.001488
 41
0.001488
  0
VERTEX
  8
0
 10
3.6951
 20
4.30257
 30
0.0
 40
0.001488
 41
0.001488
  0
VERTEX
  8
0
 10
3.69575
 20
4.30578
 30
0.0
 40
0.001488
 41
0.001488
  0
VERTEX
  8
0
 10
3.69613
 20
4.30897
 30
0.0
 40
0.001488
 41
0.001488
  0
VERTEX
  8
0
 10
3.69624
 20
4.31222
 30
0.0
 40
0.001488
 41
0.001488
  0
VERTEX
  8
0
 10
3.69613
 20
4.31549
 30
0.0
 40
0.001488
 41
0.001488
  0
VERTEX
  8
0
 10
3.69575
 20
4.31874
 30
0.0
 40
0.001488
 41
0.001488
  0
VERTEX
  8
0
 10
3.6951
 20
4.32189
 30
0.0
 40
0.001488
 41
0.001488
  0
VERTEX
  8
0
 10
3.69422
 20
4.32503
 30
0.0
 40
0.001488
 41
0.001488
  0
VERTEX
  8
0
 10
3.69308
 20
4.32807
 30
0.0
 40
0.001488
 41
0.001488
  0
VERTEX
  8
0
 10
3.69179
 20
4.331
 30
0.0
 40
0.001488
 41
0.001488
  0
VERTEX
  8
0
 10
3.69015
 20
4.33382
 30
0.0
 40
0.001488
 41
0.001488
  0
VERTEX
  8
0
 10
3.68837
 20
4.33653
 30
0.0
 40
0.001488
 41
0.001488
  0
VERTEX
  8
0
 10
3.68636
 20
4.33908
 30
0.0
 40
0.001488
 41
0.001488
  0
VERTEX
  8
0
 10
3.68414
 20
4.34147
 30
0.0
 40
0.001488
 41
0.001488
  0
VERTEX
  8
0
 10
3.68175
 20
4.34369
 30
0.0
 40
0.001488
 41
0.001488
  0
VERTEX
  8
0
 10
3.67919
 20
4.34571
 30
0.0
 40
0.001488
 41
0.001488
  0
VERTEX
  8
0
 10
3.67654
 20
4.3475
 30
0.0
 40
0.001488
 41
0.001488
  0
VERTEX
  8
0
 10
3.67372
 20
4.34907
 30
0.0
 40
0.001488
 41
0.001488
  0
VERTEX
  8
0
 10
3.67074
 20
4.35047
 30
0.0
 40
0.001488
 41
0.001488
  0
VERTEX
  8
0
 10
3.66769
 20
4.35157
 30
0.0
 40
0.001488
 41
0.001488
  0
VERTEX
  8
0
 10
3.66456
 20
4.35243
 30
0.0
 40
0.001488
 41
0.001488
  0
VERTEX
  8
0
 10
3.6614
 20
4.35308
 30
0.0
 40
0.001488
 41
0.001488
  0
VERTEX
  8
0
 10
3.65815
 20
4.35346
 30
0.0
 40
0.001488
 41
0.001488
  0
VERTEX
  8
0
 10
3.65494
 20
4.35357
 30
0.0
 40
0.001488
 41
0.001488
  0
VERTEX
  8
0
 10
3.65169
 20
4.35346
 30
0.0
 40
0.001488
 41
0.001488
  0
SEQEND
 8
0
  0
POLYLINE
  8
0
 62
     5
 66
     1
 10
0
 20
0
 30
0.0
 70
     1
 40
0.107136
 41
0.107136
  0
VERTEX
  8
0
 10
5.04232
 20
4.34581
 30
0.0
 40
0.001488
 41
0.001488
  0
VERTEX
  8
0
 10
5.03163
 20
4.34033
 30
0.0
 40
0.001488
 41
0.001488
  0
VERTEX
  8
0
 10
5.02317
 20
4.33187
 30
0.0
 40
0.001488
 41
0.001488
  0
VERTEX
  8
0
 10
5.01768
 20
4.32118
 30
0.0
 40
0.001488
 41
0.001488
  0
VERTEX
  8
0
 10
5.01579
 20
4.30931
 30
0.0
 40
0.001488
 41
0.001488
  0
VERTEX
  8
0
 10
5.01768
 20
4.29742
 30
0.0
 40
0.001488
 41
0.001488
  0
VERTEX
  8
0
 10
5.02317
 20
4.28674
 30
0.0
 40
0.001488
 41
0.001488
  0
VERTEX
  8
0
 10
5.03163
 20
4.27826
 30
0.0
 40
0.001488
 41
0.001488
  0
VERTEX
  8
0
 10
5.04232
 20
4.27279
 30
0.0
 40
0.001488
 41
0.001488
  0
VERTEX
  8
0
 10
5.05419
 20
4.27094
 30
0.0
 40
0.001488
 41
0.001488
  0
VERTEX
  8
0
 10
5.06603
 20
4.27279
 30
0.0
 40
0.001488
 41
0.001488
  0
VERTEX
  8
0
 10
5.07676
 20
4.27826
 30
0.0
 40
0.001488
 41
0.001488
  0
VERTEX
  8
0
 10
5.08518
 20
4.28674
 30
0.0
 40
0.001488
 41
0.001488
  0
VERTEX
  8
0
 10
5.09071
 20
4.29742
 30
0.0
 40
0.001488
 41
0.001488
  0
VERTEX
  8
0
 10
5.09256
 20
4.30931
 30
0.0
 40
0.001488
 41
0.001488
  0
VERTEX
  8
0
 10
5.09071
 20
4.32118
 30
0.0
 40
0.001488
 41
0.001488
  0
VERTEX
  8
0
 10
5.08518
 20
4.33187
 30
0.0
 40
0.001488
 41
0.001488
  0
VERTEX
  8
0
 10
5.07676
 20
4.34033
 30
0.0
 40
0.001488
 41
0.001488
  0
VERTEX
  8
0
 10
5.06603
 20
4.34581
 30
0.0
 40
0.001488
 41
0.001488
  0
VERTEX
  8
0
 10
5.05419
 20
4.34765
 30
0.0
 40
0.001488
 41
0.001488
  0
VERTEX
  8
0
 10
5.04232
 20
4.34581
 30
0.0
 40
0.001488
 41
0.001488
  0
SEQEND
 8
0
  0
ENDSEC
  0
EOF
